<svg width="2871" height="1284" viewBox="0 0 2871 1284" fill="none" xmlns="http://www.w3.org/2000/svg">
<path d="M83.7396 1280.9C83.7396 1280.9 -124.57 831.057 116.36 550.717C314.43 320.257 583.63 274.947 792.77 413.757C881.85 472.877 1130.61 458.847 1430.31 177.597C1819.55 -187.673 2795.25 14.837 2606.84 745.107C2515.67 1098.51 2906.11 928.387 2718.27 1281.65L83.7396 1280.9Z" fill="#EBF3FA"/>
<path d="M2867.23 1284H23.4693C21.6893 1284 20.2393 1282.55 20.2393 1280.77V1279.67C20.2393 1277.89 21.6893 1276.44 23.4693 1276.44H2867.22C2869 1276.44 2870.45 1277.89 2870.45 1279.67V1280.77C2870.46 1282.55 2869 1284 2867.23 1284Z" fill="#2E3552"/>
<path d="M405.2 755.986L395.67 860.266L409.84 862.466L449.95 769.686L405.2 755.986Z" fill="#FFB27D"/>
<path d="M411.69 851.736C411.69 851.736 408.4 862.656 410.45 870.786C411.82 876.206 403.39 883.656 394.07 893.956C393.13 894.996 391.39 893.946 391.59 892.566C391.7 891.846 391.919 890.986 392.349 890.006C394.039 886.086 398.88 879.286 398.88 879.286C398.49 877.756 388.56 883.116 382.95 886.826C379.69 888.986 370.27 899.166 367.76 897.646C365.25 896.126 369.309 886.336 373.669 879.116C378.029 871.906 393.72 865.806 395.68 860.276C397.63 854.726 411.69 851.736 411.69 851.736Z" fill="#FFB27D"/>
<path d="M457.479 377.787L561.31 333.517L657.03 379.167L561.31 427.757L457.479 377.787Z" fill="#233862"/>
<path d="M474.279 428.667L475.759 426.707C454.849 410.977 458.909 384.687 460.169 378.667C460.329 377.897 460.019 377.107 459.379 376.647C458.739 376.187 457.839 376.547 457.679 377.327C456.299 384.337 452.469 412.267 474.279 428.667Z" fill="#EFCBAB"/>
<path d="M475.749 426.707L478.879 427.867L476.269 431.217L474.279 428.667L475.749 426.707Z" fill="#D8A987"/>
<path d="M478.879 427.867C478.879 427.867 482.749 430.677 484.109 429.817C484.109 429.817 482.849 433.507 480.949 433.887C480.949 433.887 477.439 432.707 476.259 431.207L478.879 427.867Z" fill="#EFCBAB"/>
<path d="M524.58 1169.16L517.54 1198.79L508.19 1238.09H478.98L477.24 1200.44L475.89 1171.41L524.58 1169.16Z" fill="#FFB27D"/>
<path d="M467.43 1281.26C467.43 1281.26 467.43 1266.96 469.47 1262.2C471.51 1257.45 478.98 1238.08 478.98 1238.08H508.19C508.19 1238.08 513.62 1255.74 513.96 1261.52C514.3 1267.29 513.96 1281.26 513.96 1281.26H467.43V1281.26Z" fill="#233862"/>
<path d="M652.889 1281.26C652.889 1281.26 652.889 1266.96 650.849 1262.2C648.809 1257.45 641.339 1238.08 641.339 1238.08H612.129C612.129 1238.08 606.699 1255.74 606.359 1261.52C606.019 1267.29 606.359 1281.26 606.359 1281.26H652.889V1281.26Z" fill="#233862"/>
<path d="M535.87 478.627C535.87 478.627 534.84 510.467 530.77 524.737L498.51 594.267L569.89 693.097L619.94 565.407L590.98 525.397C590.98 525.397 582.24 482.707 586.82 466.907C591.4 451.107 535.87 478.627 535.87 478.627Z" fill="#FFB27D"/>
<path d="M535.689 483.017C535.689 483.007 545.289 506.127 563.379 505.627C581.469 505.117 585.579 484.667 585.579 484.667L535.689 483.017Z" fill="#ED985F"/>
<path d="M524.9 464.307C524.9 464.307 519.06 435.147 514.98 426.317C510.9 417.487 507.51 378.087 552.68 376.047C552.68 376.047 570 378.087 579.51 372.307C579.51 372.307 579.51 378.077 577.13 380.117C577.13 380.117 588.89 372.717 601.12 386.307C613.35 399.897 596.83 451.107 597.85 462.317L524.9 464.307Z" fill="#132644"/>
<path d="M561.309 496.697C548.199 496.467 524.079 479.017 524.079 457.407V423.687C524.079 415.797 529.579 409.337 536.309 409.337H586.309C593.039 409.337 598.539 415.797 598.539 423.687V455.497C598.529 478.157 576.339 496.957 561.309 496.697Z" fill="#FFB27D"/>
<path d="M524.08 441.686C524.08 441.686 524.15 421.426 540.2 418.306C556.25 415.186 592.17 428.186 597.26 413.406C602.35 398.626 527.83 398.886 524.08 408.316C520.33 417.736 524.08 441.686 524.08 441.686Z" fill="#132644"/>
<path d="M530.769 524.727L560.639 531.437L590.829 524.167L598.539 570.507L564.659 685.857L527.579 547.627L530.769 524.727Z" fill="white"/>
<path d="M529.3 534.206L553.03 551.926L560.8 539.196L567.99 551.926L593.27 529.906L588.29 524.156L560.64 531.436L530.77 530.076L529.3 534.206Z" fill="#D2E3FC"/>
<path d="M653.589 785.757L582.509 790.197C582.099 789.527 581.639 789.527 581.129 790.287L560.219 791.597L471.089 786.027C471.089 786.027 448.669 888.347 457.479 1024.7C460.289 1068.2 466.569 1197.02 472.549 1242.58L533.639 1243.23C541.559 1191.71 550.719 1063.13 555.639 1041.06C557.879 1031.03 559.949 1021.09 561.889 1011.26C563.659 1022.46 564.789 1031.55 564.769 1037.21C564.729 1046.27 567.369 1060.69 571.029 1078.07C576.169 1102.55 591.279 1215.41 595.789 1244.87H659.889C660.659 1204.28 664.139 1066.38 664.869 1024.69C666.819 913.507 653.589 785.757 653.589 785.757Z" fill="#EE9849"/>
<path d="M702.649 1145.24C669.969 1162.37 447.429 1182.67 407.539 1135.6C400.749 1127.59 495.579 531.427 495.579 531.427C495.579 531.427 501.689 529.667 511.999 527.727C517.259 526.737 523.599 525.706 530.779 524.836C530.859 527.066 546.229 623.886 567.129 661.636C567.129 661.636 590.829 609.526 590.979 525.376C590.979 524.956 590.889 524.546 590.839 524.146C595.319 524.626 599.869 525.246 604.429 526.036C606.359 526.366 608.289 526.726 610.219 527.126C617.549 528.596 624.919 530.497 632.259 532.927C632.249 532.937 709.459 1141.67 702.649 1145.24Z" fill="#1C468A"/>
<path d="M521.39 525.957C521.39 525.957 487.34 787.527 474.28 807.137C468.81 815.337 460.81 816.677 451.39 814.847C449.59 814.507 447.739 814.047 445.849 813.487L419.729 803.477L419.619 803.437C415.389 801.747 411.119 800.147 406.859 798.827C380.029 790.517 382.12 767.937 389.34 737.147C396.56 706.357 443.86 558.097 459.83 547.637C488.03 529.157 521.39 525.957 521.39 525.957Z" fill="#1C468A"/>
<path d="M590.83 524.156C568.4 521.756 547.36 522.846 530.78 524.836C530.77 524.756 530.77 524.716 530.77 524.716C530.77 524.716 586.35 490.346 590.83 524.156Z" fill="#FFB27D"/>
<path d="M571.26 685.836C536.87 660.516 512 527.726 512 527.726C517.26 526.736 523.6 525.706 530.78 524.836C530.86 527.066 545.37 618.556 566.28 656.316C566.28 656.316 590.84 609.536 590.98 525.386C590.98 524.966 590.89 524.556 590.84 524.156C595.32 524.636 599.87 525.256 604.43 526.046C606.36 526.376 608.29 526.736 610.22 527.136C610.26 598.006 571.26 685.836 571.26 685.836Z" fill="#BC3F3F"/>
<path d="M549.699 471.697C549.699 471.697 565.379 470.127 572.659 471.897C572.659 471.897 568.729 478.227 562.369 478.167C555.999 478.117 551.219 475.747 549.699 471.697Z" fill="#FFF0E6"/>
<path d="M511.829 393.227L512.759 408.497C512.759 408.497 547.939 384.987 605.649 406.577L604.849 384.497C603.999 380.187 601.339 376.457 597.539 374.267C586.719 368.037 561.369 356.487 521.329 375.827C515.709 378.527 512.199 387.007 511.829 393.227Z" fill="#1C468A"/>
<path d="M533.39 510.687L521.39 525.957L553.12 547.627L560.64 531.437L533.39 510.687Z" fill="white"/>
<path d="M588.39 510.687L560.64 531.437L568.6 547.627L595.91 524.767L588.39 510.687Z" fill="white"/>
<path d="M559.74 567.226C560.59 566.376 561.98 566.376 562.84 567.226C563.69 568.086 563.69 569.466 562.84 570.326C561.99 571.176 560.6 571.176 559.74 570.326C558.88 569.466 558.88 568.086 559.74 567.226Z" fill="#D2E3FC"/>
<path d="M561.29 594.526C562.499 594.526 563.48 593.546 563.48 592.336C563.48 591.127 562.499 590.146 561.29 590.146C560.08 590.146 559.1 591.127 559.1 592.336C559.1 593.546 560.08 594.526 561.29 594.526Z" fill="#D2E3FC"/>
<path d="M559.74 615.037C560.59 614.187 561.98 614.187 562.84 615.037C563.69 615.887 563.69 617.277 562.84 618.137C561.99 618.987 560.6 618.987 559.74 618.137C558.88 617.277 558.88 615.897 559.74 615.037Z" fill="#D2E3FC"/>
<path d="M632.25 532.937C632.25 532.937 653.64 541.827 665.07 568.027C676.51 594.227 723.97 665.787 722.6 699.307C721.22 732.827 714.78 763.317 682.87 764.357C660.97 765.067 638.67 743.637 638.67 711.587C638.68 679.527 632.25 532.937 632.25 532.937Z" fill="#1C468A"/>
<path d="M700.19 745.566C699.33 754.606 695.95 761.896 687.86 763.926C662.28 770.326 650.96 745.636 656.35 721.446C656.53 720.646 656.73 719.866 656.97 719.126C662.43 701.446 682.07 698.736 689.33 698.346C691.03 698.256 692.05 698.286 692.05 698.286C692.05 698.286 692.19 698.686 692.45 699.436C694.29 704.836 701.83 728.356 700.19 745.566Z" fill="#233862"/>
<path d="M700.189 745.567C700.189 745.567 625.61 711.997 596.09 673.457C593.91 670.607 599.499 667.137 599.499 667.137L689.33 698.337L692.46 699.417C694.29 704.837 701.829 728.357 700.189 745.567Z" fill="#FFB27D"/>
<path d="M612.449 668.957H513.909V798.817H612.449V668.957Z" fill="#FCECDB"/>
<path d="M554.399 760.496L543.319 779.006L550.329 778.006L553.329 783.576L562.739 766.556L554.399 760.496Z" fill="#932424"/>
<path d="M569.079 759.347L580.159 777.857L573.159 776.857L570.159 782.437L560.739 765.417L569.079 759.347Z" fill="#932424"/>
<path d="M550.499 756.407C551.739 748.307 556.079 745.127 562.799 744.107C571.569 742.777 575.099 749.617 575.099 756.407C575.099 763.197 569.589 768.707 562.799 768.707C556.009 768.707 549.469 763.127 550.499 756.407Z" fill="#BC3F3F"/>
<path d="M562.78 766.207C559.81 766.207 556.79 764.827 554.89 762.617C553.31 760.777 552.629 758.537 552.979 756.307C553.879 750.467 556.87 747.477 562.7 746.587C565.43 746.167 567.7 746.717 569.43 748.207C571.44 749.937 572.599 752.917 572.599 756.387C572.599 761.807 568.2 766.207 562.78 766.207ZM564.39 747.597C563.9 747.597 563.4 747.637 562.87 747.717C557.55 748.527 554.929 751.147 554.109 756.477C553.819 758.367 554.41 760.287 555.76 761.867C557.45 763.837 560.14 765.067 562.78 765.067C567.56 765.067 571.45 761.177 571.45 756.397C571.45 753.257 570.44 750.597 568.68 749.077C567.54 748.087 566.1 747.597 564.39 747.597Z" fill="#932424"/>
<path d="M576.9 684.587H549.47C549.02 684.587 548.64 684.217 548.64 683.757C548.64 683.307 549.01 682.927 549.47 682.927H576.9C577.35 682.927 577.73 683.297 577.73 683.757C577.72 684.217 577.35 684.587 576.9 684.587Z" fill="#1C468A"/>
<path d="M582.219 688.047H544.149C543.699 688.047 543.319 687.677 543.319 687.217C543.319 686.767 543.689 686.387 544.149 686.387H582.219C582.669 686.387 583.049 686.757 583.049 687.217C583.039 687.677 582.669 688.047 582.219 688.047Z" fill="#1C468A"/>
<path d="M591.259 716.717H535.099C534.579 716.717 534.159 716.297 534.159 715.777C534.159 715.257 534.579 714.837 535.099 714.837H591.259C591.779 714.837 592.199 715.257 592.199 715.777C592.199 716.287 591.779 716.717 591.259 716.717Z" fill="#1C468A"/>
<path d="M591.259 721.437H535.099C534.579 721.437 534.159 721.017 534.159 720.497C534.159 719.977 534.579 719.557 535.099 719.557H591.259C591.779 719.557 592.199 719.977 592.199 720.497C592.199 721.007 591.779 721.437 591.259 721.437Z" fill="#1C468A"/>
<path d="M591.259 725.557H535.099C534.579 725.557 534.159 725.137 534.159 724.617C534.159 724.097 534.579 723.677 535.099 723.677H591.259C591.779 723.677 592.199 724.097 592.199 724.617C592.199 725.137 591.779 725.557 591.259 725.557Z" fill="#1C468A"/>
<path d="M591.259 730.077H535.099C534.579 730.077 534.159 729.657 534.159 729.137C534.159 728.617 534.579 728.197 535.099 728.197H591.259C591.779 728.197 592.199 728.617 592.199 729.137C592.199 729.657 591.779 730.077 591.259 730.077Z" fill="#1C468A"/>
<path d="M595.989 756.877C594.219 758.347 592.319 759.567 590.329 760.687C590.499 760.157 590.639 759.607 590.609 759.117C590.569 758.447 590.039 758.147 589.499 757.867C589.369 757.797 589.239 757.727 589.119 757.647C589.329 757.447 589.439 757.157 589.299 756.847C589.069 756.337 588.439 756.417 588.219 756.887C588.179 756.977 588.159 757.057 588.149 757.147C588.059 757.097 587.999 757.047 587.939 756.977C588.269 756.367 588.579 755.737 588.859 755.107C588.919 754.967 588.839 754.797 588.729 754.707C588.259 754.347 587.609 754.467 587.229 754.917C586.779 755.447 586.889 756.257 587.109 756.857C587.129 756.897 587.139 756.937 587.159 756.987C586.739 757.737 586.289 758.477 585.799 759.187C585.749 759.137 585.709 759.097 585.659 759.047C585.529 758.927 585.399 758.767 585.279 758.587C585.499 758.007 585.649 757.397 585.699 756.757C585.719 756.477 585.439 756.337 585.199 756.427C584.539 756.667 584.189 757.337 584.279 758.017C584.309 758.257 584.379 758.477 584.489 758.687C584.339 759.007 584.169 759.307 583.959 759.607C583.829 759.797 583.919 759.997 584.079 760.087C583.869 760.797 583.579 761.537 583.079 762.047C582.679 762.467 581.919 762.787 581.429 762.287C581.119 761.967 581.079 761.437 581.039 761.027C580.929 759.997 580.859 758.927 580.899 757.887C580.919 757.397 580.969 756.897 581.139 756.437C581.239 756.147 581.389 755.707 581.529 756.207C581.599 756.447 581.499 756.827 581.479 757.077C581.439 757.517 582.119 757.567 582.169 757.127C582.219 756.607 582.449 755.517 581.869 755.197C581.379 754.927 580.929 755.317 580.709 755.717C579.899 757.177 580.219 759.177 580.339 760.757C580.439 762.017 580.909 763.567 582.519 763.167C584.039 762.787 584.599 760.877 584.939 759.557C584.959 759.477 584.959 759.397 584.929 759.337C584.939 759.327 584.939 759.317 584.949 759.307C585.009 759.367 585.079 759.437 585.139 759.497C585.229 759.577 585.309 759.657 585.399 759.747C585.239 759.967 585.079 760.187 584.909 760.407C584.819 760.527 584.839 760.717 584.939 760.827C585.449 761.437 586.369 760.987 586.349 760.227C586.349 760.057 586.299 759.897 586.229 759.757C586.709 759.067 587.159 758.357 587.569 757.627C587.789 757.837 588.059 757.977 588.399 757.957C588.419 757.957 588.449 757.957 588.469 757.947C588.649 758.137 588.869 758.287 589.069 758.407C589.269 758.517 589.489 758.587 589.669 758.727C589.999 758.997 589.899 759.297 589.829 759.677C589.739 760.177 589.579 760.677 589.429 761.167C588.739 761.567 588.049 762.067 587.819 762.867C587.609 763.597 587.799 764.367 588.419 764.817C588.609 764.957 588.859 764.847 588.939 764.647C589.329 763.687 589.689 762.707 589.989 761.707C589.999 761.677 590.009 761.647 590.019 761.617C590.629 761.267 591.269 760.957 591.879 760.607C593.489 759.657 595.009 758.567 596.449 757.377C596.779 757.107 596.329 756.587 595.989 756.877ZM587.609 755.957C587.599 755.677 587.749 755.177 588.069 755.187C587.929 755.497 587.779 755.807 587.619 756.107C587.619 756.057 587.609 756.007 587.609 755.957ZM588.489 763.917C588.199 763.377 588.619 762.707 589.089 762.257C588.899 762.817 588.699 763.377 588.489 763.917Z" fill="#1C468A"/>
<path d="M608.579 795.107H518.459V673.457H608.579V795.107ZM519.499 794.077H607.549V674.487H519.499V794.077Z" fill="#1C468A"/>
<path d="M577.719 659.077C577.719 659.077 559.569 674.677 566.099 677.027C572.639 679.377 590.179 668.967 593.619 668.967C597.059 668.967 604.969 668.967 604.969 668.967C604.969 668.967 593.759 655.987 587.839 656.327C581.919 656.667 577.719 659.077 577.719 659.077Z" fill="#FFB27D"/>
<path d="M474.269 631.377L451.379 814.837C449.579 814.497 447.729 814.037 445.839 813.477L419.719 803.467L419.609 803.427C419.609 803.427 427.659 795.097 438.579 766.207C449.499 737.307 474.269 631.377 474.269 631.377Z" fill="#233862"/>
<path d="M1039.75 838.438C1039.75 838.438 1049.38 859.247 1048.86 864.917C1048.34 870.587 1039.75 888.647 1039.75 888.647L1029.35 840.857L1039.75 838.438Z" fill="#FFB27D"/>
<path d="M1032.18 748.987L1039.75 838.437L1029.35 840.857L1001.92 759.737L1032.18 748.987Z" fill="#FFB27D"/>
<path d="M808.58 461.677L911.88 400.697L982.84 450.427L884.54 507.737L808.58 461.677Z" fill="#233862"/>
<path d="M861.65 489.778C861.65 489.778 859.01 504.798 844.56 512.538C830.11 520.278 817.73 522.548 820.83 547.468C823.93 572.388 806.9 578.068 803.8 594.578C800.7 611.088 801.09 641.258 842.49 632.238C883.9 623.218 978.72 629.657 989.03 616.247C999.33 602.837 992.11 574.977 974.57 553.817C957.03 532.667 980.24 518.828 971.99 500.208C963.74 481.588 947.9 462.428 947.9 462.428C947.9 462.428 879.77 449.478 861.65 489.778Z" fill="#132644"/>
<path d="M881.21 1175.91L895.18 1234.76L916.11 1234.64L916.88 1175.91H881.21Z" fill="#FFB27D"/>
<path d="M1057.26 1178.42L1097.01 1234.76L1112.51 1214.87L1088.58 1170.68L1057.26 1178.42Z" fill="#FFB27D"/>
<path d="M936.18 582.858C936.32 582.918 933.62 648.378 922.4 648.488C920.05 648.508 902.7 602.658 900.49 602.058C888.49 598.788 886.8 569.428 886.97 569.388C892.05 568.378 893.52 561.398 893.41 531.388L895.71 531.838L934.33 539.488C934.33 539.488 933.45 551.648 933.43 563.098C933.4 572.708 933.98 581.828 936.18 582.858Z" fill="#FFB27D"/>
<path d="M780.159 517.187L778.899 514.548C806.999 501.178 808.509 469.568 808.469 462.268C808.469 461.328 809.019 460.488 809.869 460.108C810.729 459.728 811.689 460.358 811.689 461.298C811.639 469.788 809.469 503.237 780.159 517.187Z" fill="#EFCBAB"/>
<path d="M778.909 514.548L774.989 515.168L777.239 519.688L780.159 517.188L778.909 514.548Z" fill="#D8A987"/>
<path d="M774.99 515.168C774.99 515.168 769.81 517.528 768.43 516.198C768.43 516.198 769.03 520.788 771.14 521.698C771.14 521.698 775.51 521.158 777.24 519.688L774.99 515.168Z" fill="#EFCBAB"/>
<path d="M934.33 539.488C934.33 539.488 933.45 551.648 933.43 563.098C911.82 562.488 900.39 542.768 895.71 531.848L934.33 539.488Z" fill="#EF9E67"/>
<path d="M887.76 533.197C887.76 533.197 873.12 517.887 867.43 503.427C863.37 493.097 860.82 452.307 901.87 449.977C901.87 449.977 913.69 448.787 926.06 453.947C935.9 458.047 950.949 468.157 943.949 505.617L942.68 518.047L887.76 533.197Z" fill="#132644"/>
<path d="M1108.78 1202C1108.78 1202 1098.51 1203.77 1090.09 1204.41C1088.22 1204.55 1086.44 1204.64 1084.89 1204.64C1080.83 1204.64 1073.52 1203.11 1068.61 1201.97L1068.24 1201.89C1066.08 1201.38 1064.44 1200.96 1063.83 1200.8L1063.57 1200.73C1063.57 1200.73 1012.38 1143.74 983.67 1052.38C983 1050.25 982.29 1048.1 981.55 1045.93C965.83 1000.11 933.25 942.597 916.09 890.527C913.36 882.237 910.9 874.427 908.71 867.047C908 864.687 907.31 862.357 906.66 860.077C894.01 816.117 890.35 787.257 886.97 756.417L990.19 782.677C990.18 782.677 1033.52 970.547 1108.78 1202Z" fill="#A53D38"/>
<path d="M941.089 545.597C941.089 545.597 891.129 556.527 884.799 525.307C878.469 494.087 867.759 474.477 899.389 466.177C931.019 457.877 939.649 468.527 944.299 478.437C948.949 488.347 953.919 541.947 941.089 545.597Z" fill="#FFB27D"/>
<path d="M922.07 460.808C922.07 460.808 915.73 500.208 895.76 509.868C875.79 519.528 865.51 515.728 865.51 515.728C865.51 515.728 879.08 499.638 877.92 476.558C877.92 476.558 908.2 445.468 922.07 460.808Z" fill="#132644"/>
<path d="M919.27 464.468C919.27 464.468 931.17 470.578 935.27 478.028C939.37 485.478 947.899 488.118 948.449 500.098C948.449 500.098 953.77 473.118 939.31 461.368C923.98 448.928 919.27 464.468 919.27 464.468Z" fill="#132644"/>
<path d="M894.48 1231.47C894.48 1231.47 896.17 1243.13 891.81 1255.6C891.81 1255.6 888.38 1271.21 903.76 1271.5C919.14 1271.79 922.9 1270.34 921.16 1260.77C919.42 1251.2 916.11 1234.65 916.11 1234.65L894.48 1231.47Z" fill="#FFB27D"/>
<path d="M891.81 1255.6C891.81 1255.6 888.96 1270.34 890.7 1278.17C890.7 1278.17 895.34 1281.65 906.51 1281.65C917.1 1281.65 922.61 1278.17 922.61 1278.17C922.61 1278.17 922.94 1262.02 920.11 1255.2C920.11 1255.2 909.22 1271.55 891.81 1255.6Z" fill="#C45446"/>
<path d="M1149.55 1262.33C1149.55 1262.33 1121.21 1230.87 1112.51 1214.87L1091.44 1225.67L1138.55 1269.91L1149.57 1268.46L1149.55 1262.33Z" fill="#FFB27D"/>
<path d="M1167.55 1280.77C1167.55 1280.77 1137.1 1280.77 1131.88 1280.19C1126.66 1279.62 1122.46 1272.07 1116.8 1260.76C1114.49 1256.13 1109.29 1253.58 1103.97 1252.18V1278.38H1095.92L1088.31 1250.54C1083.29 1241.32 1087.91 1232.96 1091.44 1225.67C1095.55 1225.66 1106.6 1228.47 1127.53 1252.06C1134.41 1259.8 1142.01 1262.57 1149.55 1262.34C1149.65 1262.41 1149.76 1262.46 1149.86 1262.51C1167.26 1270.33 1167.55 1280.77 1167.55 1280.77Z" fill="#C45446"/>
<path d="M1090.09 1204.41C1088.22 1204.55 1086.44 1204.64 1084.89 1204.64C1080.83 1204.64 1073.52 1203.11 1068.61 1201.97L1068.24 1201.89L1063.83 1200.8L1063.57 1200.73C1063.57 1200.73 1012.38 1143.74 983.67 1052.38C983 1050.25 982.29 1048.1 981.55 1045.93C965.83 1000.11 933.25 942.597 916.09 890.527C913.36 882.237 910.9 874.427 908.71 867.047C908 864.687 907.31 862.357 906.66 860.077L924.91 846.217C924.91 846.217 979.72 934.967 996.69 1018.49C1010.75 1087.72 1071.3 1177.47 1090.09 1204.41Z" fill="#912F2F"/>
<path d="M926.82 1026.28C927.13 1066.89 925.07 1160.27 919.79 1198.93C919.79 1198.93 914.77 1203.37 902.33 1203.42C889.59 1203.47 883.9 1198.77 883.9 1198.77C870.63 1131.56 861.19 1075.94 854.31 1028.01C848.67 988.677 843.66 954.957 839.81 925.937C836.39 900.217 857.98 830.567 857.98 830.567L939 822.667C937.64 893.837 926.64 1002.67 926.82 1026.28Z" fill="#A53D38"/>
<path d="M902.33 1203.42C891.49 1204.05 883.9 1198.77 883.9 1198.77C870.63 1131.56 861.19 1075.94 854.31 1028.01C848.67 988.677 843.66 954.957 839.81 925.937C836.39 900.217 857.98 830.567 857.98 830.567L885.44 848.137C885.44 848.137 846.48 883.577 856.05 950.577C865.62 1017.57 889 1193.93 902.33 1203.42Z" fill="#912F2F"/>
<path d="M1029.94 774.468C1024.88 776.168 1019.17 777.168 1013.53 777.988C1004.55 779.298 995.78 780.148 990.18 782.678C973.63 790.188 933.479 568.518 933.479 568.518C933.479 568.518 962.7 568.798 976.12 589.938C989.53 611.078 1041.74 715.518 1046.38 748.988C1048.46 764.038 1040.66 770.848 1029.94 774.468Z" fill="#1C468A"/>
<path d="M1090.09 1073.43C1090.09 1073.43 1087.41 1080.14 1080.04 1089.55C1076.38 1094.24 1071.55 1099.59 1065.32 1105.12C1048.9 1119.65 1022.74 1135.37 982.33 1143.17C980.18 1143.58 978.01 1143.97 975.78 1144.35C963.6 1146.36 951.9 1147.81 940.76 1148.79C918.1 1150.78 897.72 1150.88 880.4 1150.08C868.53 1149.53 858.1 1148.55 849.34 1147.46C829.55 1144.99 818.26 1141.95 818.26 1141.95C818.26 1141.95 818.26 941.627 834.77 822.667C843.91 756.797 874.57 569.427 874.57 569.427L889.81 567.087L926.35 648.487L933.5 568.517L950.11 573.847C958.27 576.467 964.5 583.117 966.6 591.417L1090.09 1073.43Z" fill="#1C468A"/>
<path d="M972.309 765.728L887.529 757.128L901.269 634.298L986.049 642.888L972.309 765.728Z" fill="#BC3F3F"/>
<path d="M901.27 634.298L895.829 633.888L883.06 756.618L887.53 757.128L901.27 634.298Z" fill="#9B2323"/>
<path d="M830.16 697.598C830.16 697.598 889.68 715.788 946.57 723.918C946.57 723.918 965.34 732.038 956.53 734.258C954.27 734.828 840.35 759.668 823.46 743.548L830.16 697.598Z" fill="#FFB27D"/>
<path d="M889.65 567.087C889.65 567.087 845.12 572.477 837.62 581.467C813.93 609.897 792.45 731.297 811.02 759.327C833.2 792.807 867.38 740.267 878.09 709.307C883.65 693.257 892.7 596.277 889.65 567.087Z" fill="#1C468A"/>
<path d="M940.97 723.088C940.97 723.088 947.97 722.438 949.29 720.198C951.94 715.728 956.14 715.788 959.64 715.198C963.14 714.608 967.07 710.778 967.76 711.548C968.45 712.318 965.18 716.538 963.35 718.118C963.35 718.118 967.1 718.348 969.59 717.158C972.07 715.978 980.8 706.018 980.84 710.308C980.94 720.628 980.14 722.278 971.3 729.568C964.04 735.558 939.41 737.788 939.41 737.788L940.97 723.088Z" fill="#FFB27D"/>
<path d="M889.53 694.917L887.8 712.357C885.05 711.767 881.84 710.797 878.1 709.307C853.68 699.537 863.31 650.987 863.31 650.987C867.11 670.407 879.35 685.407 889.53 694.917Z" fill="#233862"/>
<path d="M947.9 462.428C947.9 462.428 911.79 448.718 861.64 489.788L862.67 480.408C863.59 472.018 867.91 464.358 874.68 459.338C882.32 453.668 894.5 447.428 912.8 444.838C925.37 443.068 937.89 448.428 945.27 458.768L947.9 462.428Z" fill="#1C468A"/>
<path d="M1029.94 774.467C1024.88 776.167 1019.17 777.167 1013.53 777.987L990.1 674.587C990.1 674.577 1029.53 754.067 1029.94 774.467Z" fill="#233862"/>
<path d="M923.199 528.437C923.199 528.437 925.509 532.877 928.879 532.907C932.259 532.927 940.879 532.067 941.499 531.277C942.119 530.487 943.759 525.777 943.759 525.777C943.759 525.777 929.579 525.517 923.199 528.437Z" fill="white"/>
<path d="M2085.01 659.927C2085.01 659.927 2081.27 654.667 2077.01 651.377C2072.74 648.087 2068.25 641.917 2069.57 639.917C2070.89 637.917 2083.7 628.507 2083.7 628.507L2090.52 645.397L2085.01 659.927Z" fill="#FFB27D"/>
<path d="M2195.53 462.907L2307.05 418.707L2369.43 478.857L2263.42 520.197L2195.53 462.907Z" fill="#233862"/>
<path d="M2134.69 701.177L2090.29 644.157L2085.01 659.917C2085.01 659.917 2130.49 763.337 2151.31 753.717C2161.02 749.247 2134.69 701.177 2134.69 701.177Z" fill="#FFB27D"/>
<path d="M2273.47 515.217C2273.47 515.217 2251.81 527.977 2265.1 552.707C2265.1 552.707 2246.13 549.237 2242.04 543.577C2242.04 543.577 2242.52 545.937 2243.22 547.127C2243.22 547.127 2221 544.307 2216.9 536.017C2208.45 518.937 2228.95 520.007 2237.81 502.277C2249.38 479.107 2267.55 460.907 2293.22 473.687C2293.22 473.687 2329.13 471.727 2312.89 517.747C2296.66 563.767 2312 567.827 2312 567.827C2312 567.827 2307.18 568.797 2305.12 568.257C2305.12 568.257 2302.41 566.307 2302.26 564.487C2302.26 564.487 2302.16 567.257 2302.72 568.297C2302.72 568.297 2285.74 565.477 2279.13 557.037C2272.51 548.587 2268.54 524.287 2273.47 515.217Z" fill="#C94C43"/>
<path d="M2242.19 589.297C2242.16 589.307 2242.14 589.317 2242.11 589.327C2241.98 589.307 2242.01 589.297 2242.19 589.297Z" fill="#FFB27D"/>
<path d="M2294.85 574.137C2295.49 579.847 2296.25 584.957 2296.58 587.397C2296.82 589.147 2300.77 620.267 2293.54 620.577C2286.31 620.887 2268.44 657.767 2260.39 657.467C2251.37 657.127 2243.38 589.297 2242.19 589.297C2244.49 588.297 2251.53 565.987 2253.75 557.477C2256.45 547.157 2258.57 536.007 2258.57 536.007L2295.18 538.317L2297.36 538.457C2296.01 543.447 2295.05 548.157 2294.38 552.537C2294.29 553.127 2294.21 553.727 2294.13 554.297C2293.47 559.157 2294.06 567.097 2294.85 574.137Z" fill="#FFB27D"/>
<path d="M2253.53 532.317C2253.53 532.317 2247.6 513.497 2248.8 499.057C2249.66 488.757 2266.08 459.527 2301.35 474.487C2301.35 474.487 2309.97 472.427 2318.18 481.837C2324.72 489.317 2333.13 503.967 2311.86 532.397L2305.68 542.267L2253.53 532.317Z" fill="#C94C43"/>
<path d="M2294.85 574.137C2269.24 566.637 2258.37 537.057 2258.37 537.057C2269.2 537.377 2283.31 544.897 2294.38 552.537C2294.29 553.127 2294.21 553.727 2294.13 554.297C2293.47 559.157 2294.06 567.097 2294.85 574.137Z" fill="#ED975D"/>
<path d="M2296.66 563.747C2296.66 563.747 2250.39 552.307 2257.96 523.607C2265.52 494.907 2264.65 474.097 2294.51 480.187C2324.37 486.277 2327.2 498.738 2327.01 508.928C2326.8 519.128 2308.89 565.977 2296.66 563.747Z" fill="#FFB27D"/>
<path d="M2315.67 485.037C2315.67 485.037 2294.14 515.367 2273.47 515.217C2252.8 515.067 2245.77 507.657 2245.77 507.657C2245.77 507.657 2263.74 499.797 2272.27 480.017C2272.28 480.027 2310.4 466.497 2315.67 485.037Z" fill="#C94C43"/>
<path d="M2311.82 486.947C2311.82 486.947 2319.25 496.957 2319.61 504.867C2319.97 512.777 2317.02 528.097 2321.54 528.747C2321.54 528.747 2337.1 508.377 2329.85 492.607C2322.16 475.887 2311.82 486.947 2311.82 486.947Z" fill="#C94C43"/>
<path d="M2313.27 488.547C2313.27 488.547 2294.95 521.417 2267.54 526.247C2267.54 526.247 2297.7 511.057 2305.93 488.327C2314.17 465.607 2313.27 488.547 2313.27 488.547Z" fill="#C94C43"/>
<path d="M2289.44 545.347C2289.44 545.347 2290.02 549.717 2292.8 550.747C2295.59 551.777 2302.99 553.657 2303.74 553.187C2304.49 552.727 2307.26 549.317 2307.26 549.317C2307.26 549.317 2295.6 544.847 2289.44 545.347Z" fill="white"/>
<path d="M2272.17 984.417C2271.58 986.877 2270.99 989.297 2270.41 991.707C2266.92 1006.2 2263.67 1019.64 2261.62 1030.9C2258.97 1045.53 2258.33 1056.43 2261.83 1061C2270.84 1072.81 2268.55 1135.98 2265.58 1181.47C2263.83 1208.54 2261.83 1229.34 2261.83 1229.34L2245.48 1246.18C2245.48 1246.18 2240.3 1219.31 2233.77 1186.7C2224.99 1142.88 2213.76 1088.71 2209.35 1075.45C2205.84 1064.93 2200.73 1020.03 2196.22 974.177C2196 971.887 2195.77 969.597 2195.55 967.297C2194.77 959.277 2194.02 951.297 2193.3 943.497C2189.25 900.127 2195.11 859.297 2195.11 859.297C2195.11 859.297 2216.38 841.787 2243.77 839.427C2259.91 838.027 2275.09 843.157 2282.59 862.997C2293.5 891.847 2282.43 941.657 2272.17 984.417Z" fill="#FFB27D"/>
<path d="M2272.16 984.407C2249.75 968.227 2218.23 939.437 2206.79 892.237C2204.6 868.767 2223.11 846.477 2243.76 839.427C2259.9 838.017 2275.08 843.157 2282.58 862.987C2293.5 891.837 2282.44 941.667 2272.16 984.407Z" fill="#ED975D"/>
<path d="M2353.87 699.317L2463.98 727.757V740.617C2463.98 740.617 2354.41 739.327 2347.34 727.127C2340.27 714.917 2353.87 699.317 2353.87 699.317Z" fill="#FFB27D"/>
<path d="M2463.97 1123.1L2458.82 1144.35C2458.82 1144.35 2436.07 1132.6 2407.2 1117.41C2362.21 1093.72 2302.35 1061.65 2290.61 1052.65C2282.88 1046.71 2272.65 1014.48 2263.18 978.017C2249.07 923.657 2236.64 859.907 2236.64 859.907C2236.64 859.907 2257.52 779.607 2313.41 828.757C2346.85 858.167 2341.66 914.847 2337.99 958.927C2335.55 988.497 2333.8 1012.41 2344.89 1018.6C2360.81 1027.49 2399.41 1059.97 2426.69 1091.76C2436.47 1103.16 2444.8 1114.47 2450.1 1124.57L2463.97 1123.1Z" fill="#FFB27D"/>
<path d="M2463.97 727.767C2463.97 727.767 2484.17 717.817 2492.2 716.857C2500.23 715.897 2513.72 715.567 2513.72 716.857C2513.72 718.147 2499.26 727.117 2495.41 727.767C2491.56 728.417 2484.17 733.877 2486.42 734.517C2488.67 735.157 2500.55 732.427 2500.71 734.517C2500.87 736.607 2493.48 737.887 2492.2 739.497C2490.91 741.107 2486.42 743.027 2479.19 742.067C2471.96 741.107 2463.97 740.617 2463.97 740.617V727.767Z" fill="#FFB27D"/>
<path d="M2463.97 1030.49C2392.87 1132.87 2209.44 1144.34 2209.44 1144.34C2179.65 1035.64 2191.86 760.797 2198.68 658.637C2198.26 640.797 2198.95 625.707 2201.88 619.907C2206.44 610.857 2231.24 595.167 2240.14 587.377C2240.14 587.377 2242.21 586.537 2243.98 586.397C2245.32 591.077 2261.84 647.167 2263.48 645.997C2265.1 644.847 2292.99 591.547 2295.93 585.257C2298.92 585.347 2300.97 585.417 2301.57 585.447C2306.48 585.677 2333.01 590.997 2335.24 595.277C2336.02 596.767 2343.63 616.957 2353.2 643.677C2353.2 643.677 2353.2 643.697 2353.21 643.747C2371.15 693.877 2397.46 684.467 2407.91 699.317C2414.48 708.637 2411.65 726.047 2399.47 741.077C2398.44 742.357 2397.34 743.617 2396.17 744.837C2386.9 754.647 2374.33 760.447 2353.87 757.437C2348.78 756.687 2338.48 751.767 2330.09 744.507C2350.22 820.147 2463.97 1030.49 2463.97 1030.49Z" fill="#1C468A"/>
<path d="M2245.2 583.797L2235.57 589.297C2235.57 589.297 2261.85 663.637 2263.15 663.317C2264.45 662.997 2303.93 585.717 2303.93 585.717L2295.88 582.357L2263.48 646.007L2245.2 583.797Z" fill="#F99746"/>
<path d="M2327.15 487.937C2327.15 487.937 2293.46 469.047 2237.8 502.267L2240.2 493.137C2242.34 484.977 2247.75 478.037 2255.19 474.067C2263.59 469.587 2276.55 465.207 2295.03 465.357C2307.73 465.457 2319.32 472.617 2325.09 483.927L2327.15 487.937Z" fill="#1C468A"/>
<path d="M2159.26 512.167L2158.43 509.367C2188.27 500.517 2194.67 469.527 2195.76 462.307C2195.9 461.377 2196.58 460.627 2197.48 460.387C2198.39 460.147 2199.24 460.917 2199.09 461.847C2197.71 470.227 2190.38 502.937 2159.26 512.167Z" fill="#EFCBAB"/>
<path d="M2158.43 509.357H2154.46L2155.98 514.177L2159.26 512.167L2158.43 509.357Z" fill="#D8A987"/>
<path d="M2154.46 509.357C2154.46 509.357 2148.98 510.877 2147.82 509.357C2147.82 509.357 2147.7 513.987 2149.65 515.207C2149.65 515.207 2154.05 515.357 2155.99 514.167L2154.46 509.357Z" fill="#EFCBAB"/>
<path d="M2247.17 590.487C2247.17 590.487 2255.97 606.667 2291.01 591.927L2263.48 646.007L2247.17 590.487Z" fill="white"/>
<path d="M2235.57 589.297C2235.57 589.297 2231 743.207 2193.04 773.027C2190.37 775.137 2187.52 776.627 2184.5 777.397C2165.32 782.297 2151.39 770.867 2141.96 755.037C2128.85 733.047 2124.41 702.557 2126.64 695.537C2130.87 682.157 2140.62 705.817 2161.1 699.317C2181.58 692.827 2187.1 610.337 2201.4 598.307C2205.13 595.187 2235.57 589.297 2235.57 589.297Z" fill="#1C468A"/>
<path d="M2050.34 698.817C2050.34 698.817 2044.62 695.737 2039.17 691.757C2036.67 689.907 2034.23 687.897 2032.42 685.897C2031.4 684.757 2030.58 683.647 2030.08 682.567C2030.08 682.567 2076.43 626.787 2080.11 620.227C2083.79 613.667 2118.76 559.547 2118.76 559.547C2118.76 559.547 2123.04 561.557 2128.18 564.887C2130.08 566.127 2132.12 567.557 2134.08 569.127C2137.71 572.037 2141.12 575.457 2143.19 579.147C2143.19 579.147 2092.28 630.737 2088.69 638.177C2085.09 645.617 2050.34 698.817 2050.34 698.817Z" fill="#EFCBAB"/>
<path d="M2039.17 691.757C2036.67 689.907 2034.23 687.897 2032.42 685.897C2031.4 684.757 2030.58 683.647 2030.08 682.567C2030.08 682.567 2076.43 626.787 2080.11 620.227C2083.79 613.667 2118.76 559.547 2118.76 559.547C2118.76 559.547 2123.04 561.557 2128.18 564.887C2130.08 566.127 2132.12 567.557 2134.08 569.127C2119.79 583.707 2081.21 623.477 2077.91 630.297C2074.71 636.927 2049.58 675.757 2039.17 691.757Z" fill="#DDB08E"/>
<path d="M2086.84 609.327C2086.84 609.327 2073.17 622.587 2071.6 631.637L2085.89 643.107C2085.89 643.107 2098.4 630.857 2102.36 621.797L2086.84 609.327Z" fill="#C94C43"/>
<path d="M2090.29 644.167C2090.29 644.167 2091.27 635.167 2089.2 631.997C2087.13 628.827 2086.94 620.097 2085.01 621.027C2083.08 621.957 2084.32 629.107 2083.1 632.557C2081.88 636.017 2080.09 652.077 2085.01 655.137C2089.92 658.197 2090.29 644.167 2090.29 644.167Z" fill="#FFB27D"/>
<path d="M2076.43 621.577C2076.43 621.577 2070.74 620.697 2068.67 624.477C2066.6 628.257 2064.02 634.397 2067.94 636.827C2071.85 639.257 2076.43 621.577 2076.43 621.577Z" fill="#FFB27D"/>
<path d="M2265.58 1181.47C2263.83 1208.54 2261.83 1229.34 2261.83 1229.34L2245.48 1246.18C2245.48 1246.18 2240.3 1219.31 2233.77 1186.7C2233.77 1186.71 2252.1 1193.08 2265.58 1181.47Z" fill="white"/>
<path d="M2278.27 1253.68L2269.45 1258.46C2266.24 1259.59 2263.6 1259.92 2260.35 1261.17C2255.42 1263.06 2251.95 1266.77 2251.79 1267.44C2249.3 1277.56 2245.77 1276.92 2245.77 1276.92L2210.33 1277.25C2208.66 1276.42 2211.49 1269.26 2212.85 1267.92C2216.2 1264.62 2226.23 1266.28 2229.89 1255.9C2231.95 1250.07 2242.12 1231.93 2242.12 1231.93L2242.19 1231.87C2242.53 1231.69 2244.42 1231.31 2254.66 1233.44C2259.95 1234.54 2262.15 1223.79 2262.15 1223.79C2262.15 1223.79 2263.83 1224.12 2265.67 1225.45C2267.13 1226.49 2268.7 1228.15 2269.59 1230.77C2270.86 1234.45 2276.06 1239.75 2279.8 1243.21C2282.07 1245.31 2283.79 1246.73 2283.79 1246.73C2283.79 1246.73 2285.34 1248.62 2278.27 1253.68Z" fill="#233862"/>
<path d="M2463.97 1123.1L2458.82 1144.35C2458.82 1144.35 2436.07 1132.6 2407.2 1117.41C2418.43 1110.29 2423.98 1099.73 2426.7 1091.76C2436.48 1103.16 2444.81 1114.47 2450.11 1124.57L2463.97 1123.1Z" fill="white"/>
<path d="M2493.41 1131.34C2493.41 1131.34 2493.37 1131.33 2493.28 1131.31C2492.61 1131.14 2489.55 1130.13 2487.52 1125.26C2486.18 1122.05 2485.78 1119.42 2484.55 1116.24L2479.52 1107.56C2474.26 1100.63 2472.41 1102.26 2472.41 1102.26C2472.41 1102.26 2471.03 1104.02 2469 1106.35C2465.64 1110.19 2460.5 1115.54 2456.86 1116.91C2454.27 1117.88 2452.65 1119.49 2451.66 1120.98C2450.39 1122.86 2450.11 1124.55 2450.11 1124.55C2450.11 1124.55 2460.91 1126.43 2459.97 1131.76C2458.14 1142.06 2458.57 1143.93 2458.76 1144.27L2458.82 1144.34C2458.82 1144.34 2477.24 1153.98 2483.13 1155.87C2493.61 1159.23 2499.09 1166.35 2502.48 1169.61C2503.86 1170.93 2505.76 1171.53 2507.64 1171.23C2510.4 1170.79 2513.99 1169.91 2514.77 1168.21L2493.41 1131.34Z" fill="#233862"/>
<path d="M2256.21 693.497C2256.21 690.557 2258.59 688.177 2261.53 688.177C2264.47 688.177 2266.85 690.557 2266.85 693.497C2266.85 696.437 2264.47 698.817 2261.53 698.817C2258.59 698.817 2256.21 696.437 2256.21 693.497Z" fill="#233862"/>
<path d="M2256.21 732.987C2256.21 730.047 2258.59 727.667 2261.53 727.667C2264.47 727.667 2266.85 730.047 2266.85 732.987C2266.85 735.927 2264.47 738.307 2261.53 738.307C2258.59 738.307 2256.21 735.927 2256.21 732.987Z" fill="#233862"/>
<path d="M2399.46 741.087C2398.43 742.367 2397.33 743.627 2396.16 744.847C2386.89 754.657 2374.32 760.457 2353.86 757.447C2348.77 756.697 2338.47 751.777 2330.08 744.517C2330.08 744.517 2313.2 698.417 2315.47 691.917C2317.75 685.427 2350.25 735.957 2377.23 738.307C2387.77 739.237 2394.92 740.087 2399.46 741.087Z" fill="#233862"/>
<path d="M2201.08 705.247L2193.05 773.027C2190.38 775.137 2187.53 776.627 2184.51 777.397C2165.33 782.297 2151.4 770.867 2141.97 755.037C2151.8 756.397 2175.64 758.527 2180.84 748.147C2187.43 734.987 2201.08 705.247 2201.08 705.247Z" fill="#233862"/>
<path d="M1735.56 336.047C1735.56 336.047 1745.12 327.427 1747.45 321.387C1749.78 315.347 1749.51 305.197 1749.51 298.617C1749.51 298.617 1746.63 297.607 1745.92 300.747C1745.22 303.887 1743.93 311.147 1741.28 312.607C1738.63 314.067 1732.69 313.897 1731.31 321.387C1729.94 328.887 1735.56 336.047 1735.56 336.047Z" fill="#B56F40"/>
<path d="M1713.7 337.506C1713.7 337.506 1705.01 319.716 1706.77 313.926C1708.52 308.136 1735.23 301.786 1738.74 304.516C1742.26 307.246 1738.74 340.486 1738.74 340.486L1713.7 337.506Z" fill="#B56F40"/>
<path d="M1994.62 873.387C1994.62 873.387 1993.34 888.067 1998.45 895.097C2003.56 902.117 2006.33 908.507 2008.03 905.307C2009.73 902.117 2005.26 891.047 2006.75 891.257C2008.24 891.467 2012.37 904.457 2014.46 908.497C2016.54 912.537 2021.01 918.927 2023.99 915.737C2026.97 912.547 2021.22 882.327 2018.88 878.497C2016.54 874.667 2011.64 866.157 2011.64 866.157L1994.62 873.387Z" fill="#B56F40"/>
<path d="M1811.06 430.737L1912.67 373.577L1980.95 458.177L1887.91 503.317L1811.06 430.737Z" fill="#233862"/>
<path d="M1853.73 457.687C1853.73 457.687 1851.6 466.807 1845.65 470.047C1839.69 473.287 1849.06 482.057 1846.71 488.527C1844.37 494.997 1853.82 503.317 1853.82 503.317L1919.45 510.877C1919.45 510.877 1929.07 506.707 1929.92 495.427C1930.77 484.147 1931.78 470.057 1931.78 470.057L1903.11 448.177L1861.82 450.127L1853.73 457.687Z" fill="#C94C43"/>
<path d="M1633.22 348.257C1633.22 348.257 1630.19 341.137 1628.07 333.377C1627.12 329.807 1626.33 326.117 1626.14 322.907C1626.03 321.087 1626.1 319.447 1626.44 318.067C1626.44 318.067 1711.04 300.587 1719.34 297.217C1727.64 293.847 1800.41 269.467 1800.41 269.467C1800.41 269.467 1802.9 274.527 1805.21 281.437C1806.06 284.007 1806.89 286.857 1807.55 289.777C1808.76 295.177 1809.4 300.907 1808.58 305.877C1808.58 305.877 1722.86 316.057 1713.98 320.317C1705.11 324.567 1633.22 348.257 1633.22 348.257Z" fill="#EFCBAB"/>
<path d="M1628.07 333.377C1627.12 329.807 1626.33 326.117 1626.14 322.907C1626.03 321.087 1626.1 319.447 1626.44 318.067C1626.44 318.067 1711.04 300.587 1719.34 297.217C1727.64 293.847 1800.41 269.467 1800.41 269.467C1800.41 269.467 1802.9 274.527 1805.21 281.437C1806.06 284.007 1806.89 286.857 1807.55 289.777C1783.41 292.737 1717.94 301.077 1709.8 304.967C1701.91 308.757 1649.65 326.227 1628.07 333.377Z" fill="#DDB08E"/>
<path d="M1733.71 292.087C1733.71 292.087 1711.13 294.277 1702.95 301.527L1707.73 322.827C1707.73 322.827 1728.48 320.717 1738.9 315.227L1733.71 292.087Z" fill="#C94C43"/>
<path d="M1754.22 1277.24C1754.22 1277.24 1754.22 1263.65 1756.16 1259.14C1758.1 1254.62 1765.2 1236.23 1765.2 1236.23H1792.95C1792.95 1236.23 1798.11 1253.01 1798.44 1258.5C1798.76 1263.99 1798.44 1277.25 1798.44 1277.25H1754.22V1277.24Z" fill="#233862"/>
<path d="M1930.43 1277.24C1930.43 1277.24 1930.43 1263.65 1928.49 1259.14C1926.55 1254.62 1919.45 1236.23 1919.45 1236.23H1891.7C1891.7 1236.23 1886.54 1253.01 1886.21 1258.5C1885.89 1263.99 1886.21 1277.25 1886.21 1277.25H1930.43V1277.24Z" fill="#233862"/>
<path d="M1861.01 512.427C1861.01 512.427 1855.44 542.177 1849.55 554.987L1816.01 571.457L1862.95 664.257L1927.41 606.067L1906 564.307C1906 564.307 1903.96 522.957 1910.55 508.787C1917.13 494.617 1861.01 512.427 1861.01 512.427Z" fill="#B56F40"/>
<path d="M1860.21 516.537C1860.21 516.527 1865.89 539.627 1882.94 541.767C1900 543.897 1906.82 525.287 1906.82 525.287L1860.21 516.537Z" fill="#99592E"/>
<path d="M1882.29 533.077C1870.02 530.967 1849.89 511.097 1853.01 490.807L1857.88 459.137C1859.02 451.727 1865.12 446.457 1871.43 447.427L1918.38 454.647C1924.69 455.617 1928.93 462.477 1927.79 469.887L1923.19 499.757C1919.92 521.047 1896.36 535.497 1882.29 533.077Z" fill="#B56F40"/>
<path d="M1757.7 806.727C1757.61 803.027 1762.53 953.927 1755.29 1039.6C1748.15 1124.21 1755.34 1241.93 1755.34 1241.93C1755.34 1241.93 1778.56 1254.73 1803.73 1241.93C1803.73 1241.93 1831.33 1078.49 1831.16 1039.6C1830.97 998.177 1861.2 813.197 1861.2 813.197L1757.7 806.727Z" fill="#F99746"/>
<path d="M1929.42 1241.92C1929.42 1241.92 1906.21 1254.73 1881.04 1241.92C1881.04 1241.92 1853.44 1078.49 1853.61 1039.59C1853.69 1022.1 1848.34 978.987 1842.14 935.037C1833.65 874.907 1823.56 813.197 1823.56 813.197L1931.09 806.477C1931.09 806.477 1922.22 954.997 1929.48 1039.6C1936.74 1124.19 1929.42 1241.92 1929.42 1241.92Z" fill="#F99746"/>
<path d="M1872.21 492.947C1867.63 492.237 1858.61 489.817 1858.23 481.597C1858.11 479.107 1858.9 477.037 1860.5 475.597C1862.26 474.017 1864.87 473.347 1867.65 473.777L1881.74 475.947C1884.42 476.357 1886.17 477.417 1886.95 479.097C1888.26 481.917 1886.36 485.557 1885.49 486.987C1882.49 491.887 1879.09 493.877 1874.8 493.227C1874.62 493.217 1873.63 493.157 1872.21 492.947ZM1867.51 474.707C1865.01 474.327 1862.68 474.897 1861.13 476.297C1859.75 477.537 1859.07 479.357 1859.17 481.557C1859.37 485.767 1862.03 488.857 1867.1 490.727C1870.96 492.147 1874.82 492.297 1874.86 492.297L1874.91 492.307C1878.79 492.907 1881.9 491.067 1884.68 486.517C1885.3 485.497 1887.24 481.987 1886.09 479.507C1885.45 478.137 1883.94 477.257 1881.59 476.897L1867.51 474.707Z" fill="#2C3A64"/>
<path d="M1904.72 497.947C1903.3 497.727 1902.34 497.487 1902.16 497.437C1897.87 496.767 1895.23 493.857 1893.84 488.277C1893.43 486.647 1892.72 482.607 1894.81 480.307C1896.06 478.947 1898.05 478.457 1900.73 478.877L1914.82 481.047C1917.6 481.477 1919.89 482.887 1921.09 484.927C1922.18 486.777 1922.31 488.997 1921.45 491.327C1918.63 499.047 1909.3 498.647 1904.72 497.947ZM1900.59 479.797C1898.24 479.437 1896.53 479.817 1895.51 480.937C1893.67 482.957 1894.46 486.887 1894.75 488.047C1896.04 493.227 1898.45 495.917 1902.33 496.507L1902.38 496.517C1902.42 496.527 1906.15 497.557 1910.25 497.357C1915.65 497.097 1919.12 494.957 1920.57 490.997C1921.33 488.937 1921.23 486.997 1920.28 485.397C1919.22 483.597 1917.18 482.347 1914.68 481.967L1900.59 479.797Z" fill="#2C3A64"/>
<path d="M1885.19 483.147C1884.98 483.117 1884.8 482.967 1884.73 482.747C1884.65 482.447 1884.82 482.137 1885.12 482.057C1885.37 481.987 1891.28 480.367 1895.77 483.707C1896.02 483.897 1896.07 484.247 1895.88 484.487C1895.7 484.737 1895.34 484.787 1895.09 484.607C1891.03 481.587 1885.47 483.117 1885.41 483.137C1885.35 483.157 1885.27 483.167 1885.19 483.147Z" fill="#2C3A64"/>
<path d="M1872.78 571.397L1841.02 557.637C1841.02 557.637 1824.6 688.237 1846.52 696.327C1846.52 696.327 1909.07 585.237 1904.82 570.977L1872.78 571.397Z" fill="white"/>
<path d="M1852.68 549.356C1852.68 549.356 1843.73 550.896 1839.05 555.366C1839.05 555.366 1845.86 577.496 1863.95 584.096L1871.71 571.396C1871.71 571.396 1856.95 564.416 1852.68 549.356Z" fill="#D2E3FC"/>
<path d="M1871.71 571.397C1871.71 571.397 1901.3 570.257 1905.71 556.007C1905.71 556.007 1911.62 562.177 1911.4 572.177C1911.4 572.177 1902.04 586.317 1878.63 586.477L1871.71 571.397Z" fill="#D2E3FC"/>
<path d="M1874.18 510.867C1874.18 510.867 1889.92 511.567 1896.87 514.357C1896.87 514.357 1892.07 520.057 1885.78 519.087C1879.5 518.127 1875.1 515.097 1874.18 510.867Z" fill="#FFF0E6"/>
<path d="M1762.7 464.487C1748.42 473.487 1728.92 485.677 1713 495.317C1712.22 492.627 1711.64 490.187 1711.31 488.057C1706.04 454.397 1713.7 337.507 1713.7 337.507C1713.7 337.507 1719.01 334.837 1724.49 334.377C1734.85 333.527 1738.75 340.477 1738.75 340.477C1738.75 340.477 1756.79 443.317 1762.7 464.487Z" fill="#B56F40"/>
<path d="M2015.58 871.027L2004.81 875.507C1987.59 881.637 1969.01 873.367 1963.37 855.977C1955.79 832.537 1955 807.287 1952.19 786.507C1950.81 776.287 1949.21 755.217 1943.02 738.807C1943.01 738.797 1943.01 738.787 1943.01 738.787L1953.83 1102.12C1791.67 1113.61 1712.56 1020.4 1712.56 1020.4C1708.37 922.037 1747.67 700.407 1762 623.597C1755.09 607.997 1706.04 563.207 1697.84 519.227C1694.03 498.807 1705.96 484.357 1720.45 474.607C1738.68 462.317 1760.96 457.467 1760.96 457.467L1813.37 527.527C1815.6 530.047 1817.17 532.027 1817.78 533.277C1821.82 541.507 1842.81 555.177 1842.81 555.177C1842.75 555.607 1845.07 673.297 1849.34 677.047C1855.51 674.707 1896.87 591.917 1906 564.327C1919.17 567.947 1933.38 572.857 1948.37 579.467C1948.37 579.467 1976.75 594.617 1980.77 660.647C1984.18 716.637 2018.39 788.097 2026.15 853.037C2027.06 860.697 2022.74 868.067 2015.58 871.027Z" fill="#1C468A"/>
<path d="M1836.93 551.097C1836.93 551.097 1840.76 665.207 1845.65 693.767L1918.42 568.027L1908.39 564.317L1850.88 668.517L1845.2 555.157L1836.93 551.097Z" fill="#C94C43"/>
<path d="M1852.68 546.657C1852.68 546.657 1843.73 548.197 1839.05 552.667C1839.05 552.667 1845.86 574.797 1863.95 581.397L1871.71 571.397C1871.71 571.397 1856.95 561.727 1852.68 546.657Z" fill="white"/>
<path d="M1871.71 571.397C1871.71 571.397 1901.3 567.567 1905.71 553.307C1905.71 553.307 1911.62 559.477 1911.4 569.477C1911.4 569.477 1902.04 583.617 1878.63 583.777L1871.71 571.397Z" fill="white"/>
<path d="M1833.67 711.337C1836.64 711.337 1839.05 708.928 1839.05 705.957C1839.05 702.986 1836.64 700.577 1833.67 700.577C1830.7 700.577 1828.29 702.986 1828.29 705.957C1828.29 708.928 1830.7 711.337 1833.67 711.337Z" fill="#233862"/>
<path d="M1818.19 754.357C1818.19 751.387 1820.6 748.977 1823.57 748.977C1826.54 748.977 1828.95 751.387 1828.95 754.357C1828.95 757.327 1826.54 759.727 1823.57 759.727C1820.6 759.727 1818.19 757.327 1818.19 754.357Z" fill="#233862"/>
<path d="M1818.41 484.297L1820.2 482.607C1802.2 463.617 1810.57 438.367 1812.81 432.647C1813.1 431.917 1812.92 431.087 1812.36 430.527C1811.8 429.967 1810.85 430.177 1810.57 430.917C1808.05 437.587 1799.63 464.487 1818.41 484.297Z" fill="#EFCBAB"/>
<path d="M1820.2 482.597L1823.09 484.267L1819.95 487.137L1818.41 484.297L1820.2 482.597Z" fill="#D8A987"/>
<path d="M1823.09 484.268C1823.09 484.268 1826.44 487.688 1827.93 487.058C1827.93 487.058 1826.07 490.478 1824.14 490.548C1824.14 490.548 1820.87 488.808 1819.96 487.128L1823.09 484.268Z" fill="#EFCBAB"/>
<path d="M1855.38 464.557C1855.38 464.557 1867.98 465.407 1871.71 459.027C1871.71 459.027 1881.95 461.577 1886.46 457.747C1886.46 457.747 1902.25 460.937 1902.68 454.557C1902.68 454.557 1914.75 478.707 1927.97 473.657C1941.2 468.607 1906.81 444.127 1906.81 444.127L1861.81 450.127L1855.38 464.557Z" fill="#C94C43"/>
<path d="M1856.31 446.467L1853.73 457.687C1853.73 457.687 1888.88 445.207 1931.78 470.047L1931.28 451.977C1931.18 448.447 1929.57 445.127 1926.85 442.887C1919.09 436.497 1900.53 423.947 1866.17 433.937C1861.35 435.327 1857.43 441.587 1856.31 446.467Z" fill="#1C468A"/>
<path d="M1702.71 308.107C1702.59 307.417 1700.27 302.577 1703.44 298.087C1706.61 293.597 1727.43 286.727 1729.37 290.357C1731.31 293.987 1730.08 306.587 1723.39 309.377C1716.7 312.167 1703.22 310.907 1702.71 308.107Z" fill="#B56F40"/>
<path d="M1762 623.577C1755.09 607.977 1706.04 563.187 1697.84 519.207C1694.03 498.787 1705.96 484.337 1720.45 474.587C1720.45 474.587 1713.66 505.467 1732.92 533.337C1752.19 561.217 1762 623.577 1762 623.577Z" fill="#233862"/>
<path d="M2004.81 875.507C1987.59 881.637 1969.01 873.367 1963.37 855.977C1955.79 832.537 1955 807.287 1952.19 786.507C1950.81 776.287 1949.21 755.217 1943.02 738.807C1943.6 739.717 1962.26 769.207 1979.02 816.947C1996.05 865.437 1990.73 872.507 2004.81 875.507Z" fill="#233862"/>
<path d="M2662.98 1276.44H2571.52C2566.62 1272.28 2574.91 1262.84 2583.58 1262.21C2587.34 1261.93 2592.1 1262.71 2597.54 1263.86C2598.8 1247.14 2605.99 1172 2633.07 1175.02C2663.53 1178.4 2633.07 1208.11 2624.46 1225.7C2618.08 1238.73 2611.35 1257.41 2608.28 1266.23C2610.75 1266.77 2613.31 1267.29 2615.93 1267.77C2619.97 1255.38 2634.99 1213.68 2654.09 1216.11C2676.52 1218.95 2667.5 1235.67 2651.61 1245.59C2639.95 1252.89 2625.63 1263.26 2618.82 1268.27C2624.58 1269.21 2630.6 1269.85 2636.71 1269.7C2652.37 1269.34 2660.02 1273.96 2662.98 1276.44Z" fill="#82B378"/>
<path d="M343.27 1276.44C343.27 1276.44 301.09 1160.61 271.48 1170.48C241.87 1180.35 343.27 1276.44 343.27 1276.44Z" fill="#82B378"/>
<path d="M327.12 1276.44C323.53 1276.44 256.23 1206.6 251.74 1224.88C247.25 1243.17 327.12 1276.44 327.12 1276.44Z" fill="#82B378"/>
<path d="M398.91 1276.44C398.91 1276.44 371.08 1250.92 335.83 1257.56C300.59 1264.2 285.54 1271.48 263.4 1266.45C241.27 1261.42 229.96 1276.44 229.96 1276.44H398.91Z" fill="#82B378"/>
<path d="M1369.21 987.867C1375.7 977.697 1321.02 865.247 1350.37 802.627C1354.02 794.827 1422.18 806.487 1422.18 806.487C1422.18 806.487 1436.12 964.607 1428.29 1006.46C1422.76 1036.02 1411.92 1123.26 1406.05 1171.92C1406.03 1172.08 1406.01 1172.23 1405.99 1172.38C1404.59 1183.95 1403.47 1193.3 1402.79 1199.12C1402.26 1203.51 1402.78 1207.96 1404.3 1212.12C1408.65 1224.02 1418.08 1248.65 1422.8 1252.05C1422.8 1252.05 1397.01 1259.43 1392.06 1256.53C1387.11 1253.65 1374.52 1208.18 1374.52 1208.18C1376.71 1203.96 1377.48 1199.14 1376.75 1194.44C1375.77 1188.25 1374.29 1178.54 1372.61 1166.6C1372.61 1166.6 1372.61 1166.6 1372.61 1166.61C1350.37 1076.61 1353.72 1012.16 1369.21 987.867Z" fill="#FFB27D"/>
<path d="M1223.55 1189.66C1227.1 1186.48 1229.53 1182.26 1230.5 1177.59C1231.77 1171.45 1233.82 1161.84 1236.48 1150.08C1247.48 1058.03 1273.38 998.927 1296.46 981.677C1306.12 974.457 1294.71 849.937 1344.29 801.737C1350.46 795.727 1410.1 830.717 1410.1 830.717C1410.1 830.717 1367.26 983.567 1345.15 1019.95C1329.53 1045.65 1288.57 1123.43 1265.88 1166.88H1265.89C1260.38 1177.39 1255.96 1185.91 1253.22 1191.17C1251.18 1195.09 1250.09 1199.44 1250.04 1203.86C1249.9 1216.54 1248.2 1250.47 1253.2 1253.43C1256.31 1255.27 1259.01 1257.31 1261.25 1259.37C1261.25 1259.37 1237.73 1257.35 1234.85 1257.19C1232.01 1257.04 1213.98 1200.61 1213.63 1199.53C1213.63 1199.52 1213.63 1199.52 1213.63 1199.52C1217.23 1195.61 1220.89 1192.05 1223.55 1189.66Z" fill="#FFB27D"/>
<path d="M1201.94 1220.29L1196.03 1254.89L1199.16 1257.21L1217.66 1230.49L1201.94 1220.29Z" fill="#233862"/>
<path d="M1202.58 1222.93C1222.79 1233.51 1225.77 1268.82 1228.99 1276.43L1265.88 1276.54C1271.45 1274.66 1269.26 1266.77 1261.24 1259.38C1261.24 1259.38 1237.72 1257.36 1234.84 1257.2C1232 1257.05 1213.97 1200.62 1213.62 1199.54C1205.14 1208.74 1196.93 1219.97 1202.58 1222.93Z" fill="#1C468A"/>
<path d="M1234.84 1105.91C1236.47 1150.09 1324.35 1141.6 1324.35 1141.6L1335.98 1085.41L1343.68 1048.12L1346.24 1035.76L1342.38 1033.93L1286.47 1007.39L1268.96 999.067L1268.25 1001.28L1238.11 1095.68L1238.1 1095.72L1234.84 1105.91Z" fill="#F99746"/>
<path d="M1238.1 1095.71C1263.49 1069.6 1335.98 1085.41 1335.98 1085.41L1343.68 1048.12L1342.39 1033.93L1286.48 1007.39L1268.26 1001.28L1238.12 1095.68L1238.1 1095.71Z" fill="#EF7E29"/>
<path d="M1367.85 1243.44L1372.66 1276.42H1377.99L1380.5 1250.86L1367.85 1243.44Z" fill="#233862"/>
<path d="M1367.84 1243.45C1379.04 1248.62 1391.31 1270.46 1397.01 1276.43L1443.57 1276.76C1449.4 1271.99 1429.03 1256.57 1422.8 1252.05C1422.8 1252.05 1397.01 1259.43 1392.06 1256.53C1387.11 1253.65 1374.52 1208.18 1374.52 1208.18C1369.01 1218.85 1359.58 1239.63 1367.84 1243.45Z" fill="#1C468A"/>
<path d="M1346.25 1019.46L1357.81 1146.35C1379.29 1173.58 1436.03 1156.85 1436.03 1156.85C1436.03 1156.85 1440.34 1052.03 1442.54 1047.9L1434.31 1045.48L1346.25 1019.46Z" fill="#F99746"/>
<path d="M1346.25 1019.46L1357.81 1146.35C1358.42 1083.9 1439.18 1090.18 1439.18 1090.18L1434.32 1045.47L1346.25 1019.46Z" fill="#EF7E29"/>
<path d="M1445.19 423.407L1326.69 376.447L1260.41 440.357L1373.05 484.297L1445.19 423.407Z" fill="#233862"/>
<path d="M1389.69 445.047C1389.69 445.047 1389.94 459.167 1400.31 463.567C1421.77 472.667 1401.35 483.217 1422.39 498.107C1427.23 501.537 1430.73 522.817 1397.22 525.987C1363.7 529.157 1359.54 532.007 1359.54 532.007C1359.54 532.007 1334.66 547.957 1307.1 531.557C1291.14 522.057 1311.25 495.577 1303.92 488.847C1294.06 479.777 1292.74 450.057 1307.1 437.777C1321.46 425.497 1344.43 418.377 1344.43 418.377L1389.69 445.047Z" fill="#132644"/>
<path d="M1483.73 475.758L1484.61 472.778C1452.9 463.378 1446.1 430.448 1444.94 422.778C1444.79 421.788 1444.07 420.998 1443.11 420.738C1442.14 420.478 1441.24 421.308 1441.4 422.288C1442.87 431.198 1450.66 465.958 1483.73 475.758Z" fill="#EFCBAB"/>
<path d="M1484.61 472.777H1488.83L1487.21 477.897L1483.73 475.757L1484.61 472.777Z" fill="#D8A987"/>
<path d="M1488.83 472.777C1488.83 472.777 1494.66 474.397 1495.89 472.777C1495.89 472.777 1496.02 477.697 1493.95 478.997C1493.95 478.997 1489.27 479.157 1487.22 477.897L1488.83 472.777Z" fill="#EFCBAB"/>
<path d="M1396.95 534.737C1394.6 534.437 1387.48 528.757 1384.26 520.057C1380.38 509.597 1377.04 498.217 1377.04 498.217L1366.74 499.907L1339.22 504.407L1336.97 504.777C1339.17 510.577 1340.82 516.057 1342.01 521.097C1344.18 530.227 1344.85 537.947 1344.59 543.687C1344.32 549.547 1341.25 551.097 1339.59 552.277C1338.82 552.767 1368.61 650.437 1382.99 645.577C1395.47 641.357 1398.16 534.407 1396.95 534.737Z" fill="#FFB27D"/>
<path d="M1344.58 543.677C1361.11 536.987 1377.04 498.207 1377.04 498.207C1373.75 497.817 1370.26 498.467 1366.74 499.897C1357.63 503.547 1348.34 512.297 1342.01 521.087C1344.18 530.217 1344.86 537.937 1344.58 543.677Z" fill="#ED975D"/>
<path d="M1334.03 527.898C1334.03 527.898 1383.16 519.938 1377.73 489.418C1372.3 458.898 1374.98 437.318 1343.38 441.108C1311.78 444.908 1307.78 457.627 1307.11 468.257C1306.45 478.887 1321.11 529.188 1334.03 527.898Z" fill="#FFB27D"/>
<path d="M1329.66 556.248C1329.66 556.248 1246.76 531.298 1240.86 524.368C1234.96 517.428 1220.64 425.318 1220.63 412.058L1208.57 413.788C1208.57 413.788 1199.63 518.558 1209.99 542.328C1220.35 566.088 1324.89 603.528 1324.89 603.528L1329.66 556.248Z" fill="#FFB27D"/>
<path d="M1394.46 533.558C1394.46 533.558 1384.28 565.288 1344.42 545.328L1386.28 637.408L1397.22 555.078L1394.46 533.558Z" fill="#F99746"/>
<path d="M1428.34 542.907C1428.34 542.907 1423.32 559.417 1519.31 611.747L1590.12 563.267L1598.62 570.387C1598.62 570.387 1530.73 652.217 1520.13 650.477C1509.53 648.737 1436.65 600.727 1436.65 600.727L1428.34 542.907Z" fill="#FFB27D"/>
<path d="M1167.37 952.157C1167.37 952.157 1169.98 960.367 1175.91 972.247C1186.13 992.667 1206.19 1023.93 1239.75 1042.69C1277.81 1063.98 1401.13 1104.66 1485.82 1084.96C1485.82 1084.96 1477.79 816.927 1460 706.717C1459.59 704.167 1459.17 701.697 1458.75 699.317C1463.91 719.107 1490.41 725.627 1501.28 721.967C1525.14 713.937 1533.45 695.387 1534.58 675.757C1536.33 645.537 1521.06 612.727 1519.32 611.737C1480.18 589.517 1472.93 554.247 1453.92 541.657C1436.95 530.417 1396.45 533.357 1394.47 533.557L1385.6 621.627L1344.43 545.327C1344.37 545.307 1278 539.537 1240.88 524.357C1240.88 524.357 1129.86 677.967 1267.34 675.947C1267.34 711.317 1250.81 743.477 1234.86 791.287C1219.03 838.717 1167.37 952.157 1167.37 952.157Z" fill="#1C468A"/>
<path d="M1344.71 505.657C1344.71 505.657 1344.16 510.627 1341.03 511.867C1337.89 513.107 1329.54 515.407 1328.68 514.907C1327.82 514.397 1324.59 510.597 1324.59 510.597C1324.59 510.597 1337.71 505.247 1344.71 505.657Z" fill="white"/>
<path d="M1220.91 412.117C1220.91 412.117 1225.99 408.587 1223.31 398.887C1221.52 392.397 1222.72 387.137 1221.35 387.287C1219.88 387.457 1218.75 395.877 1217.89 397.947C1217.17 399.697 1206.14 378.837 1203.31 380.467C1200.48 382.097 1194.99 390.347 1208.16 418.867L1220.91 412.117Z" fill="#FFB27D"/>
<path d="M1590.12 563.258C1590.12 563.258 1597.66 545.368 1600.17 541.688C1605.14 534.388 1619.31 529.828 1620.23 533.058C1621.14 536.278 1611.14 541.038 1610.71 548.478C1610.59 550.538 1614.82 546.538 1617.43 544.978C1619 544.038 1619.94 544.818 1619.12 546.008C1614.96 552.068 1612.69 558.288 1608.71 560.588C1604.73 562.888 1598.62 570.378 1598.62 570.378L1590.12 563.258Z" fill="#FFB27D"/>
<path d="M1394.46 533.558L1385.59 621.638L1344.58 543.678L1329.66 543.738L1389.99 653.498L1405.47 533.098L1394.46 533.558Z" fill="#AA443E"/>
<path d="M1313.75 442.227C1313.75 442.227 1299.35 459.177 1344.71 467.477C1359.29 470.147 1366.6 484.237 1362.63 496.137C1356.74 513.787 1371.63 532.797 1393.55 525.947C1411 520.497 1382.58 439.007 1367.09 437.767C1351.61 436.537 1313.75 442.227 1313.75 442.227Z" fill="#132644"/>
<path d="M1329.66 446.127C1329.66 446.127 1315.09 456.597 1313.85 464.977C1312.61 473.367 1309.21 485.347 1303.64 476.877C1298.07 468.407 1297.14 456.957 1303.64 449.217C1310.14 441.477 1324.69 437.997 1327.78 440.667C1330.88 443.347 1329.66 446.127 1329.66 446.127Z" fill="#132644"/>
<path d="M1303.91 441.268C1303.91 441.268 1331.76 417.288 1390.9 452.588L1391.69 437.998C1389.41 429.328 1386.64 429.398 1378.73 425.178C1369.81 420.418 1356.03 415.768 1336.39 415.928C1322.9 416.038 1315.03 414.298 1308.89 426.318L1303.91 441.268Z" fill="#1C468A"/>
<path d="M1672.52 608.757C1672.52 608.757 1677.76 603.057 1682.35 596.457C1684.44 593.407 1686.41 590.187 1687.67 587.237C1688.38 585.557 1688.86 583.987 1689 582.577C1689 582.577 1615.12 537.817 1608.42 531.857C1601.73 525.907 1541.3 478.587 1541.3 478.587C1541.3 478.587 1537.26 482.517 1532.78 488.257C1531.12 490.397 1529.38 492.797 1527.79 495.327C1524.84 500.017 1522.32 505.197 1521.43 510.157C1521.43 510.157 1598.81 548.417 1605.75 555.397C1612.69 562.407 1672.52 608.757 1672.52 608.757Z" fill="#EFCBAB"/>
<path d="M1682.34 596.467C1684.43 593.417 1686.4 590.197 1687.66 587.247C1688.37 585.567 1688.85 583.997 1688.99 582.587C1688.99 582.587 1615.11 537.827 1608.41 531.867C1601.72 525.917 1541.29 478.597 1541.29 478.597C1541.29 478.597 1537.25 482.527 1532.77 488.267C1531.11 490.407 1529.37 492.807 1527.78 495.337C1549.54 506.197 1608.45 535.947 1614.82 542.337C1620.99 548.577 1664.4 582.507 1682.34 596.467Z" fill="#DDB08E"/>
<path d="M1596.59 522.227C1596.59 522.227 1617.14 531.837 1622.42 541.407L1610.79 559.887C1610.79 559.887 1591.94 550.967 1583.95 542.307L1596.59 522.227Z" fill="#C94C43"/>
<path d="M1608.71 560.587C1608.71 560.587 1613.9 558.467 1617.01 554.587C1620.12 550.707 1624.35 544.427 1619.12 546.017C1613.9 547.597 1604.61 554.147 1601.1 554.757C1597.59 555.367 1598.86 558.087 1598.61 558.867C1598.37 559.637 1608.71 560.587 1608.71 560.587Z" fill="#FFB27D"/>
<path d="M1167.37 952.157C1167.37 952.157 1169.98 960.367 1175.91 972.247C1198.16 948.707 1229.17 911.227 1250.78 866.157C1288.06 788.387 1267.32 675.957 1267.32 675.957C1267.32 711.327 1250.79 743.487 1234.84 791.297C1219.03 838.717 1167.37 952.157 1167.37 952.157Z" fill="#233862"/>
<path d="M1397.21 685.277C1397.21 683.227 1395.55 681.567 1393.5 681.567C1391.45 681.567 1389.79 683.227 1389.79 685.277C1389.79 687.327 1391.45 688.987 1393.5 688.987C1395.55 688.987 1397.21 687.317 1397.21 685.277Z" fill="#233862"/>
<path d="M1397.21 752.707C1397.21 750.657 1395.55 748.997 1393.5 748.997C1391.45 748.997 1389.79 750.657 1389.79 752.707C1389.79 754.757 1391.45 756.417 1393.5 756.417C1395.55 756.417 1397.21 754.757 1397.21 752.707Z" fill="#233862"/>
<path d="M1460 706.727C1459.59 704.177 1459.17 701.707 1458.75 699.327C1463.91 719.117 1490.41 725.637 1501.28 721.977C1525.14 713.947 1533.45 695.397 1534.58 675.767C1532 677.107 1493.28 696.897 1475.26 685.277C1456.91 673.427 1445.55 646.607 1445.2 645.777L1460 706.727Z" fill="#233862"/>
<path d="M2240.33 344.757C2240.33 344.757 2229.44 352.947 2216.87 352.267C2207.54 351.757 2197.99 343.587 2197.61 343.037L2190.81 356.247C2190.81 356.247 2208.21 365.727 2222.59 362.237C2227 361.167 2234 356.417 2237.1 352.957C2240.51 349.157 2240.33 344.757 2240.33 344.757Z" fill="#6BB7BF"/>
<path d="M2238.78 317.967L2257.02 309.397C2257.02 309.397 2256.27 348.167 2224.87 361.467C2224.87 361.467 2243.82 334.077 2238.78 317.967Z" fill="#86D1CD"/>
<path d="M305.759 697.536C305.759 697.536 294.869 705.726 282.299 705.046C272.969 704.536 263.419 696.366 263.039 695.816L256.229 709.026C256.229 709.026 273.629 718.506 288.009 715.016C292.419 713.946 299.419 709.196 302.519 705.736C305.939 701.926 305.759 697.536 305.759 697.536Z" fill="#6BB7BF"/>
<path d="M304.21 670.747L322.45 662.177C322.45 662.177 321.7 700.947 290.3 714.247C290.3 714.237 309.25 686.847 304.21 670.747Z" fill="#86D1CD"/>
<path d="M1773.09 92.4969C1773.09 92.4969 1799.59 74.0869 1819.49 101.537L1841.34 92.1369C1841.34 92.1369 1830.55 75.0969 1788.2 82.6569C1760.49 87.5869 1773.09 92.4969 1773.09 92.4969Z" fill="#5685D8"/>
<path d="M1746.99 110.507C1746.99 110.507 1754.21 80.7168 1808.57 80.7168C1808.57 80.7168 1788.2 82.6468 1772.29 109.087L1746.99 110.507Z" fill="#739AF0"/>
<path d="M1599.33 212.147C1599.33 212.147 1584.69 202.897 1583.15 191.727C1583.15 191.727 1568.9 192.497 1565.82 197.117C1565.82 197.117 1572.37 215.607 1580.07 219.077C1580.07 219.077 1597.4 220.237 1599.33 212.147Z" fill="#ED7D2B"/>
<path d="M2569.86 991.127C2569.86 991.127 2555.22 981.877 2553.68 970.707C2553.68 970.707 2539.43 971.477 2536.35 976.097C2536.35 976.097 2542.9 994.587 2550.6 998.057C2550.6 998.057 2567.94 999.217 2569.86 991.127Z" fill="#ED7D2B"/>
<path d="M180.23 965.257C180.23 965.257 165.59 956.007 164.05 944.837C164.05 944.837 149.8 945.607 146.71 950.227C146.71 950.227 153.26 968.717 160.96 972.187C160.97 972.187 178.31 973.347 180.23 965.257Z" fill="#ED7D2B"/>
</svg>
