<svg width="500" height="373" viewBox="0 0 500 373" fill="none" xmlns="http://www.w3.org/2000/svg">
<g clip-path="url(#clip0_301_1132)">
<path d="M500 327.45H0V327.7H500V327.45Z" fill="#EBEBEB"/>
<path d="M445.26 338.9H394.36V339.15H445.26V338.9Z" fill="#EBEBEB"/>
<path d="M99.67 335.94H52.46V336.19H99.67V335.94Z" fill="#EBEBEB"/>
<path d="M398 334.26H378.81V334.51H398V334.26Z" fill="#EBEBEB"/>
<path d="M331.22 340.89H317.14V341.14H331.22V340.89Z" fill="#EBEBEB"/>
<path d="M308.23 340.89H272.79V341.14H308.23V340.89Z" fill="#EBEBEB"/>
<path d="M252.21 336.66H195.22V336.91H252.21V336.66Z" fill="#EBEBEB"/>
<path d="M237.01 282.85H43.92C40.77 282.85 38.21 280.29 38.21 277.14V5.71C38.21 2.56 40.77 0 43.92 0H237.02C240.17 0 242.73 2.56 242.73 5.71V277.14C242.72 280.29 240.16 282.85 237.01 282.85ZM43.92 0.25C40.91 0.25 38.46 2.7 38.46 5.71V277.14C38.46 280.15 40.91 282.6 43.92 282.6H237.02C240.03 282.6 242.48 280.15 242.48 277.14V5.71C242.48 2.7 240.03 0.25 237.02 0.25H43.92Z" fill="#EBEBEB"/>
<path d="M453.31 282.85H260.21C257.06 282.85 254.5 280.29 254.5 277.14V5.71C254.5 2.56 257.06 0 260.21 0H453.31C456.46 0 459.02 2.56 459.02 5.71V277.14C459.02 280.29 456.46 282.85 453.31 282.85ZM260.21 0.25C257.2 0.25 254.75 2.7 254.75 5.71V277.14C254.75 280.15 257.2 282.6 260.21 282.6H453.31C456.32 282.6 458.77 280.15 458.77 277.14V5.71C458.77 2.7 456.32 0.25 453.31 0.25H260.21Z" fill="#EBEBEB"/>
<path d="M390.37 30.71H288.57V327.44H390.37V30.71Z" fill="#EBEBEB"/>
<path d="M383.502 321.449L383.502 36.7188L295.442 36.7187L295.442 321.449H383.502Z" fill="#FAFAFA"/>
<path d="M285.52 30.71H183.72V327.44H285.52V30.71Z" fill="#EBEBEB"/>
<path d="M285.521 326.279H288.571L288.571 31.8793H285.521L285.521 326.279Z" fill="#E0E0E0"/>
<path d="M278.649 321.442L278.649 36.7119L190.589 36.7119L190.589 321.442H278.649Z" fill="#FAFAFA"/>
<path d="M436.87 28.4901H137.22C136.49 28.4901 135.89 27.8901 135.89 27.1601C135.89 26.4301 136.49 25.8301 137.22 25.8301H436.87C437.6 25.8301 438.2 26.4301 438.2 27.1601C438.2 27.8901 437.6 28.4901 436.87 28.4901Z" fill="#E0E0E0"/>
<path d="M383.5 42.3858V36.7158L295.44 36.7158V42.3858L383.5 42.3858Z" fill="#E0E0E0"/>
<path d="M383.504 46.27V36.71L295.444 36.71V46.27L383.504 46.27Z" fill="#E0E0E0"/>
<path d="M278.647 57.6V36.71L190.587 36.71V57.6L278.647 57.6Z" fill="#E0E0E0"/>
<g opacity="0.8">
<path opacity="0.8" d="M403.44 19.5996H375.24V323.79H403.44V19.5996Z" fill="#F5F5F5"/>
<path opacity="0.8" d="M396 19.5996H382.69V323.79H396V19.5996Z" fill="#F0F0F0"/>
<path opacity="0.8" d="M418.57 19.5996H390.37V323.79H418.57V19.5996Z" fill="#F5F5F5"/>
<path opacity="0.8" d="M411.13 19.5996H397.82V323.79H411.13V19.5996Z" fill="#F0F0F0"/>
<path opacity="0.8" d="M432.67 19.5996H404.47V323.79H432.67V19.5996Z" fill="#F5F5F5"/>
</g>
<g opacity="0.8">
<path opacity="0.8" d="M181.46 19.5996H140.53V323.79H181.46V19.5996Z" fill="#F5F5F5"/>
<path opacity="0.8" d="M170.65 19.5996H151.33V323.79H170.65V19.5996Z" fill="#F0F0F0"/>
<path opacity="0.8" d="M203.41 19.5996H162.48V323.79H203.41V19.5996Z" fill="#F5F5F5"/>
<path opacity="0.8" d="M192.6 19.5996H173.28V323.79H192.6V19.5996Z" fill="#F0F0F0"/>
<path opacity="0.8" d="M223.87 19.5996H182.94V323.79H223.87V19.5996Z" fill="#F5F5F5"/>
</g>
<path d="M121.1 50.7793H55.0698V199.449H121.1V50.7793Z" fill="#F0F0F0"/>
<path d="M121.103 199.449H123.183L123.183 50.7792H121.103L121.103 199.449Z" fill="#E6E6E6"/>
<path d="M115.102 193.447L115.102 56.7773L61.072 56.7773L61.072 193.447H115.102Z" fill="#FAFAFA"/>
<path d="M125.26 273.12H57.4799C54.3899 273.12 51.8599 270.59 51.8599 267.5C51.8599 264.41 54.3899 261.88 57.4799 261.88H125.26C128.35 261.88 130.88 264.41 130.88 267.5C130.88 270.59 128.35 273.12 125.26 273.12Z" fill="#F5F5F5"/>
<path d="M73.78 273.12H62.65L50 327.45H61.12L73.78 273.12Z" fill="#E6E6E6"/>
<path d="M95.9899 273.12H84.8599L78.6299 327.45H89.7499L95.9899 273.12Z" fill="#E6E6E6"/>
<path d="M108.96 273.12H120.08L132.74 327.45H121.61L108.96 273.12Z" fill="#E6E6E6"/>
<path d="M250 372.61C357.082 372.61 443.89 367.542 443.89 361.29C443.89 355.038 357.082 349.97 250 349.97C142.917 349.97 56.1099 355.038 56.1099 361.29C56.1099 367.542 142.917 372.61 250 372.61Z" fill="#F5F5F5"/>
<path d="M314.58 252.63H229.24C227.63 252.63 226.31 251.31 226.31 249.7V246.33C226.31 244.72 227.63 243.4 229.24 243.4H314.58C316.19 243.4 317.51 244.72 317.51 246.33V249.7C317.5 251.31 316.19 252.63 314.58 252.63Z" fill="#263238"/>
<path d="M313.76 355.291H317.5L313.2 252.631H308.02L313.76 355.291Z" fill="#407BFF"/>
<path opacity="0.6" d="M313.76 355.291H317.5L313.2 252.631H308.02L313.76 355.291Z" fill="white"/>
<path d="M279.329 355.291H275.589L279.889 252.631H285.069L279.329 355.291Z" fill="#407BFF"/>
<path opacity="0.6" d="M279.329 355.291H275.589L279.889 252.631H285.069L279.329 355.291Z" fill="white"/>
<path d="M264.49 355.291H268.23L263.92 252.631H258.75L264.49 355.291Z" fill="#407BFF"/>
<path opacity="0.6" d="M264.49 355.291H268.23L263.92 252.631H258.75L264.49 355.291Z" fill="white"/>
<path d="M230.05 355.291H226.31L230.62 252.631H235.79L230.05 355.291Z" fill="#407BFF"/>
<path opacity="0.6" d="M230.05 355.291H226.31L230.62 252.631H235.79L230.05 355.291Z" fill="white"/>
<g opacity="0.3">
<path opacity="0.3" d="M313.2 252.62H308.02L308.26 256.99H313.38L313.2 252.62Z" fill="#407BFF"/>
<path opacity="0.3" d="M279.709 256.99H284.819L285.069 252.62H279.889L279.709 256.99Z" fill="#407BFF"/>
<path opacity="0.3" d="M258.75 252.62L258.99 256.99H264.109L263.92 252.62H258.75Z" fill="#407BFF"/>
<path opacity="0.3" d="M230.43 256.99H235.56L235.8 252.62H230.62L230.43 256.99Z" fill="#407BFF"/>
</g>
<path d="M262.08 340.199L253.62 344.699L240.28 326.689L248.75 322.189L262.08 340.199Z" fill="#FFB573"/>
<path d="M250.56 341.92L259.4 335.78C259.72 335.56 260.12 335.61 260.36 335.91L265.65 342.6C266.2 343.29 266 344.45 265.25 344.96C262.14 347.05 260.73 347.77 256.66 350.19C254.16 351.68 248.15 355.2 244.47 356.8C240.86 358.37 239.3 354.71 240.72 353.7C244.08 351.31 248.54 346.63 249.55 343.34C249.73 342.75 250.09 342.25 250.56 341.92Z" fill="#263238"/>
<path opacity="0.2" d="M248.76 322.189L240.29 326.689L246.71 335.359L254.99 330.599L248.76 322.189Z" fill="black"/>
<path d="M269.19 215.52C269.19 215.52 203.45 213.47 203.22 240.94C202.9 280.42 240.37 332.26 240.37 332.26L254.96 322.51C254.96 322.51 229.28 284.82 229.06 254C248.44 248.53 294.04 251.96 299.97 235.9C304.82 222.76 302.28 215.51 302.28 215.51H269.19V215.52Z" fill="#407BFF"/>
<path opacity="0.2" d="M269.19 215.52C269.19 215.52 203.45 213.47 203.22 240.94C202.9 280.42 240.37 332.26 240.37 332.26L254.96 322.51C254.96 322.51 229.28 284.82 229.06 254C248.44 248.53 294.04 251.96 299.97 235.9C304.82 222.76 302.28 215.51 302.28 215.51H269.19V215.52Z" fill="black"/>
<path d="M258.98 325.02L241.54 335.7L236.07 330.15L255.23 318.09L258.98 325.02Z" fill="#263238"/>
<path d="M248.73 345.23C249.46 344.73 250.16 344.02 250.63 343.49C250.69 343.42 250.7 343.33 250.67 343.25C250.63 343.17 250.55 343.12 250.47 343.12C250.1 343.12 246.81 343.15 246.11 344.19C245.95 344.43 245.92 344.71 246.04 345.01C246.24 345.49 246.55 345.77 246.96 345.84C247.49 345.93 248.12 345.65 248.73 345.23ZM249.94 343.57C248.73 344.83 247.66 345.51 247.04 345.4C246.78 345.35 246.59 345.17 246.45 344.84C246.39 344.69 246.39 344.56 246.47 344.44C246.86 343.88 248.63 343.63 249.94 343.57Z" fill="#407BFF"/>
<path d="M250.59 343.52C250.62 343.5 250.64 343.47 250.66 343.44C250.7 343.37 250.69 343.29 250.66 343.22C250.6 343.12 249.2 340.73 247.88 340.52C247.52 340.46 247.2 340.56 246.93 340.8C246.6 341.1 246.5 341.46 246.65 341.82C247.07 342.8 249.38 343.63 250.49 343.55C250.52 343.56 250.56 343.55 250.59 343.52ZM247.3 341.08C247.45 340.97 247.62 340.94 247.81 340.97C248.6 341.1 249.57 342.35 250.06 343.11C248.97 343.01 247.33 342.3 247.05 341.66C247 341.54 246.97 341.37 247.21 341.15C247.25 341.12 247.27 341.1 247.3 341.08Z" fill="#407BFF"/>
<path d="M246.43 351.239L236.93 350.789L235.37 328.359L244.87 328.809L246.43 351.239Z" fill="#FFB573"/>
<path d="M236.71 349.169L247.47 348.829C247.86 348.819 248.17 349.079 248.2 349.459L248.99 357.949C249.07 358.829 248.27 359.689 247.37 359.709C243.62 359.759 241.83 359.599 237.1 359.749C234.19 359.839 228.46 360.269 224.48 359.769C220.58 359.279 221.1 355.339 222.84 355.189C226.95 354.849 232.46 352.009 235.09 349.799C235.55 349.409 236.14 349.179 236.71 349.169Z" fill="#263238"/>
<path d="M233.37 350.939C234.25 350.909 235.23 350.699 235.91 350.519C236 350.499 236.06 350.429 236.07 350.339C236.08 350.249 236.04 350.169 235.97 350.119C235.66 349.919 232.89 348.149 231.73 348.649C231.46 348.759 231.29 348.989 231.23 349.299C231.13 349.809 231.24 350.219 231.55 350.499C231.95 350.859 232.63 350.959 233.37 350.939ZM235.28 350.209C233.58 350.609 232.32 350.589 231.85 350.159C231.66 349.979 231.6 349.719 231.67 349.369C231.7 349.209 231.78 349.099 231.91 349.049C232.53 348.789 234.15 349.539 235.28 350.209Z" fill="#407BFF"/>
<path d="M235.86 350.529C235.89 350.529 235.93 350.519 235.96 350.499C236.03 350.459 236.07 350.389 236.07 350.319C236.08 350.199 236.2 347.439 235.21 346.539C234.94 346.299 234.62 346.199 234.25 346.259C233.81 346.329 233.53 346.579 233.46 346.959C233.27 348.009 234.76 349.959 235.73 350.499C235.78 350.519 235.82 350.529 235.86 350.529ZM234.43 346.689C234.62 346.679 234.78 346.739 234.92 346.869C235.51 347.409 235.64 348.979 235.64 349.889C234.79 349.209 233.79 347.719 233.91 347.039C233.93 346.909 234 346.749 234.33 346.699C234.36 346.689 234.39 346.689 234.43 346.689Z" fill="#407BFF"/>
<path opacity="0.2" d="M244.88 328.809L235.37 328.359L236.26 341.189L245.74 341.179L244.88 328.809Z" fill="black"/>
<path d="M292.57 215.52C292.57 215.52 223.78 222.02 226.29 242.73C229.9 272.59 231.69 336.95 231.69 336.95L249.22 337.64C249.22 337.64 256.65 279.59 252.81 249.01C270.61 249.01 314.19 250.29 318.16 239.57C321.67 230.09 320.42 215.52 320.42 215.52H292.57V215.52Z" fill="#407BFF"/>
<path d="M251.16 338.72L230.12 337.67L229.36 328.52L252.44 330.11L251.16 338.72Z" fill="#263238"/>
<path d="M277.31 154.86C277.18 156.54 277.05 158 276.86 159.54C276.68 161.06 276.47 162.58 276.23 164.09C275.76 167.12 275.17 170.14 274.47 173.16C273.01 179.21 271.22 185.25 267.87 191.38C266.99 192.92 266.03 194.44 264.79 195.97C263.57 197.47 261.97 199.06 260.25 200.2C256.77 202.56 252.8 203.68 249.17 203.94C245.51 204.22 242.09 203.77 238.89 202.97C237.29 202.57 235.73 202.07 234.23 201.48C233.47 201.19 232.73 200.86 232 200.52C231.24 200.18 230.59 199.82 229.75 199.37L232.38 192.68L234.29 192.92L236.29 193.12C237.63 193.23 238.95 193.29 240.24 193.29C242.83 193.3 245.31 193.04 247.45 192.46C249.6 191.87 251.32 190.97 252.54 189.81C253.17 189.21 253.63 188.68 254.2 187.87C254.75 187.08 255.27 186.07 255.78 185.03C256.79 182.9 257.66 180.47 258.38 177.92C259.14 175.38 259.75 172.73 260.3 170.04C260.86 167.35 261.32 164.61 261.75 161.85L262.34 157.71C262.51 156.35 262.71 154.9 262.84 153.67L277.31 154.86Z" fill="#FFB573"/>
<path d="M277.37 146.71C270.34 139.91 261.67 143.93 258.21 156.65C254.75 169.38 254.21 177.52 254.21 177.52L276.48 182.13C280.53 169.98 284.57 153.67 277.37 146.71Z" fill="#263238"/>
<path opacity="0.3" d="M270.2 160.609C271.79 159.169 276.31 165.589 279.07 173.539C278.29 176.509 277.4 179.429 276.49 182.139L263.09 179.369C264.16 171.449 266.63 163.829 270.2 160.609Z" fill="black"/>
<path d="M230.86 189.58L225.9 187.67L225.68 198.28C225.68 198.28 234.08 201.91 235.79 197.74L235.19 195.09C234.68 192.83 233.07 190.79 230.86 189.58Z" fill="#FFB573"/>
<path d="M219.96 187.95L217.01 196.86L225.68 198.29L225.9 187.67L219.96 187.95Z" fill="#FFB573"/>
<path d="M227.52 195.019C227.31 195.019 227.11 194.909 227.01 194.709L218.08 177.519C217.93 177.239 218.04 176.889 218.33 176.739C218.61 176.599 218.96 176.699 219.11 176.989L228.04 194.179C228.19 194.459 228.08 194.809 227.79 194.959C227.7 194.999 227.61 195.019 227.52 195.019Z" fill="#263238"/>
<path d="M276.54 139.9L287.21 136.86L300.94 136.21C305.22 136.01 309.09 138.7 310.43 142.77C313.05 150.75 315.45 162.3 317.21 172.27C319.18 183.45 320.2 200.25 320.42 215.52H269.19C268.02 183.67 263.97 164.84 262.17 154.42C261.45 150.22 263.6 146.06 267.45 144.23L276.54 139.9Z" fill="#263238"/>
<path opacity="0.3" d="M317.21 172.26C315.83 164.41 314.05 155.58 312.07 148.28C302.94 146.74 298.51 166.76 301.23 176.69C303.94 186.62 318.4 180.6 318.4 180.6C318.05 177.6 317.65 174.79 317.21 172.26Z" fill="black"/>
<path d="M285.4 116.06C287.6 121.46 286.27 131.36 281.94 128.56C277.6 125.76 284.06 112.76 285.4 116.06Z" fill="#263238"/>
<path d="M282.96 119.51L278.81 125.84L273.16 134.47C273.55 134.67 274.41 136.03 274.91 137.02C275.94 139.1 276.79 140.65 272.43 143.63C271.5 144.27 270.91 145.38 271.12 146.49C271.38 147.84 272.72 149.15 277.43 148.32C282.89 147.36 286.54 144.47 289.25 141.76C290.82 140.19 290.46 139.01 288.95 137.38C284.67 132.79 283.39 125.44 282.96 119.51Z" fill="#FFB573"/>
<path opacity="0.2" d="M274.56 132.35L278.02 126.2C278.09 126.35 278.17 126.53 278.26 126.71C278.53 127.37 278.8 128.19 279 129.07C279.64 131.8 277.52 135.7 275.18 137.56C275.09 137.38 275 137.21 274.91 137.03C274.47 136.13 273.73 134.96 273.31 134.58C273.26 134.53 273.22 134.5 273.17 134.47L274.56 132.35Z" fill="black"/>
<path d="M253.79 112.05C252.5 114.96 257.08 123.2 262.31 119.87C267.53 116.53 256.07 106.89 253.79 112.05Z" fill="#263238"/>
<path d="M279.01 150.1C278.87 150.1 278.75 150 278.72 149.86C278.33 147.39 276.74 145.82 274.89 144C272.57 141.72 269.94 139.14 269.08 134.1C269.05 133.94 269.16 133.79 269.32 133.77C269.49 133.74 269.63 133.85 269.65 134.01C270.48 138.87 273.04 141.38 275.3 143.6C277.14 145.41 278.88 147.12 279.3 149.78C279.32 149.94 279.22 150.08 279.06 150.11C279.04 150.1 279.02 150.1 279.01 150.1Z" fill="white"/>
<path d="M281.13 109.12C283.09 118.18 284.69 123.39 281.46 129.15C276.59 137.82 264.38 136.64 259.75 128.3C255.57 120.8 253.08 107.24 260.85 101.39C268.5 95.6399 279.17 100.06 281.13 109.12Z" fill="#FFB573"/>
<path d="M283.82 115.34C280.7 119.77 272.52 111.63 273.19 106.17C265.07 110.79 256.25 116.97 250.9 111.76C244.72 105.76 246.42 97.1597 253.65 96.3897C252.37 98.8897 259.62 99.9997 263.52 96.1297C270.07 89.6497 280.42 91.0097 280.22 96.2597C285.22 94.2897 290.67 105.61 283.82 115.34Z" fill="#263238"/>
<path d="M279.27 97.7399C281.2 96.2999 279.91 91.1799 275.44 89.6699C279.7 90.2099 284.11 93.3899 279.27 97.7399Z" fill="#263238"/>
<path d="M286.71 114.94C286.81 117.19 285.96 119.29 284.82 120.65C283.1 122.69 280.44 121.06 279.83 118.51C279.28 116.21 279.99 112.67 282.25 111.57C284.46 110.49 286.59 112.36 286.71 114.94Z" fill="#FFB573"/>
<path d="M268.13 116.46C268.37 117.19 268.18 117.93 267.71 118.11C267.24 118.28 266.66 117.83 266.42 117.1C266.18 116.37 266.37 115.63 266.84 115.46C267.31 115.27 267.89 115.73 268.13 116.46Z" fill="#263238"/>
<path d="M259.93 119.47C260.17 120.2 259.98 120.94 259.51 121.12C259.04 121.29 258.46 120.84 258.22 120.11C257.98 119.38 258.17 118.64 258.64 118.46C259.11 118.28 259.69 118.74 259.93 119.47Z" fill="#263238"/>
<path d="M262.74 119.08C262.74 119.08 262.8 123.21 261.98 125.58C263.45 126.11 265.07 124.85 265.07 124.85L262.74 119.08Z" fill="#ED893E"/>
<path d="M267.13 128.88C270.01 127.88 270.99 125.53 271.04 125.43C271.09 125.31 271.03 125.18 270.92 125.13C270.8 125.08 270.67 125.14 270.62 125.25C270.61 125.28 269.49 127.95 266.17 128.67C266.05 128.7 265.97 128.82 266 128.94C266.03 129.06 266.15 129.14 266.27 129.11C266.57 129.06 266.86 128.98 267.13 128.88Z" fill="#263238"/>
<path d="M268.88 113.29C268.95 113.25 269 113.2 269.05 113.14C269.19 112.93 269.12 112.65 268.91 112.51C266.82 111.17 264.91 112.05 264.83 112.09C264.61 112.17 264.51 112.47 264.62 112.69C264.73 112.92 265 113.01 265.22 112.9C265.3 112.86 266.78 112.21 268.42 113.26C268.57 113.36 268.74 113.36 268.88 113.29Z" fill="#263238"/>
<path d="M258.31 114.73C258.32 114.66 258.31 114.58 258.28 114.51C258.18 114.28 257.92 114.17 257.69 114.26C255.4 115.21 255.04 117.28 255.02 117.37C254.96 117.6 255.15 117.85 255.39 117.89C255.64 117.93 255.87 117.76 255.91 117.52C255.93 117.43 256.23 115.85 258.03 115.1C258.19 115.03 258.29 114.89 258.31 114.73Z" fill="#263238"/>
<path d="M308.67 143.07C309.63 144.69 310.47 146.14 311.3 147.7C312.13 149.24 312.93 150.78 313.71 152.34C315.29 155.45 316.73 158.65 318.09 161.91C319.42 165.19 320.67 168.53 321.72 172.03C322.74 175.55 323.64 179.18 323.99 183.28C324.14 185.34 324.18 187.52 323.76 189.98C323.57 191.12 323.18 192.72 322.43 194.19C321.71 195.67 320.62 197.07 319.38 198.13C318.14 199.21 316.79 199.95 315.52 200.47C314.24 200.99 313.01 201.3 311.84 201.5C309.51 201.9 307.41 201.83 305.43 201.67C303.45 201.51 301.58 201.18 299.77 200.75C297.96 200.34 296.21 199.84 294.51 199.27C291.08 198.13 287.89 196.8 284.65 195.1L287.19 188.37C293.41 189.55 300.09 190.64 305.69 190.3C307.07 190.22 308.35 189.98 309.31 189.68C310.28 189.38 310.82 188.93 310.78 188.79C310.77 188.71 310.72 188.74 310.69 188.69C310.66 188.64 310.66 188.58 310.71 188.06C310.78 187.19 310.72 185.99 310.51 184.7C310.12 182.11 309.3 179.2 308.28 176.33C307.26 173.44 306.07 170.5 304.75 167.6C303.47 164.68 302.04 161.79 300.61 158.89C299.89 157.44 299.14 156.01 298.38 154.58L296.12 150.39L308.67 143.07Z" fill="#FFB573"/>
<path d="M303.98 136.36C294.31 134.89 289.57 143.18 294.11 155.56C298.66 167.94 302.93 174.89 302.93 174.89L323.76 165.75C320.04 153.51 313.88 137.87 303.98 136.36Z" fill="#263238"/>
<path d="M281.84 187.43L277.37 188.77L283.7 197.76C283.7 197.76 293.09 194.4 291.16 190.32L288.8 188.98C286.79 187.83 284.23 186.61 281.84 187.43Z" fill="#FFB573"/>
<path d="M273.43 194.97L277.9 199.44L283.71 197.77L277.38 188.78L273.43 194.97Z" fill="#FFB573"/>
<path d="M283.18 117.8C283.975 117.8 284.62 117.021 284.62 116.06C284.62 115.099 283.975 114.32 283.18 114.32C282.384 114.32 281.74 115.099 281.74 116.06C281.74 117.021 282.384 117.8 283.18 117.8Z" fill="white"/>
<path d="M284.37 120.661L283.54 120.631L283.03 116.621L284.61 116.261L284.37 120.661Z" fill="white"/>
<path d="M290.11 196.24C287.08 196.24 284.45 195.8 282.83 194.34C281.67 193.3 281.09 191.78 281.09 189.83C281.09 185.01 282.09 181.11 282.97 177.66C284.37 172.21 285.47 167.91 282.12 162.6C276.8 154.17 278.39 142.38 282.11 134.99C284.96 129.33 283.99 123.08 283.63 120.72C283.58 120.41 283.55 120.18 283.53 120.02C283.51 119.86 283.63 119.72 283.79 119.7C283.94 119.69 284.09 119.8 284.11 119.96C284.12 120.11 284.16 120.34 284.21 120.63C284.58 123.04 285.57 129.43 282.64 135.25C278.99 142.5 277.43 154.05 282.63 162.29C286.1 167.8 284.92 172.43 283.55 177.79C282.68 181.2 281.69 185.07 281.69 189.82C281.69 191.62 282.2 192.96 283.24 193.9C285.93 196.33 291.9 195.71 297.66 195.12C300.24 194.85 302.9 194.58 305.25 194.58C305.41 194.58 305.54 194.71 305.54 194.87C305.54 195.03 305.41 195.16 305.25 195.16C302.93 195.16 300.28 195.43 297.72 195.7C295.12 195.97 292.49 196.24 290.11 196.24Z" fill="white"/>
<path d="M317.22 194.11H305.84C305.51 194.11 305.24 194.38 305.24 194.71V195.51C305.24 195.84 305.51 196.11 305.84 196.11H317.22C317.55 196.11 317.82 195.84 317.82 195.51V194.71C317.82 194.38 317.55 194.11 317.22 194.11Z" fill="white"/>
<path d="M388.64 202.77H111.36C109.53 202.77 108.03 201.27 108.03 199.44C108.03 197.61 109.53 196.11 111.36 196.11H388.64C390.47 196.11 391.97 197.61 391.97 199.44C391.97 201.27 390.47 202.77 388.64 202.77Z" fill="#407BFF"/>
<path opacity="0.3" d="M388.64 202.77H323.73C321.9 202.77 320.4 201.27 320.4 199.44C320.4 197.61 321.9 196.11 323.73 196.11H388.64C390.47 196.11 391.97 197.61 391.97 199.44C391.97 201.27 390.47 202.77 388.64 202.77Z" fill="#263238"/>
<path d="M385.58 359.671H391.97L384.62 202.771H375.78L385.58 359.671Z" fill="#263238"/>
<path opacity="0.1" d="M385.58 359.671H391.97L384.62 202.771H375.78L385.58 359.671Z" fill="white"/>
<path d="M326.79 359.671H320.4L327.75 202.771H336.59L326.79 359.671Z" fill="#263238"/>
<path opacity="0.2" d="M326.79 359.671H320.4L327.75 202.771H336.59L326.79 359.671Z" fill="white"/>
<path d="M173.21 359.671H179.6L172.25 202.771H163.41L173.21 359.671Z" fill="#263238"/>
<path opacity="0.1" d="M173.21 359.671H179.6L172.25 202.771H163.41L173.21 359.671Z" fill="white"/>
<path d="M114.42 359.671H108.03L115.38 202.771H124.22L114.42 359.671Z" fill="#263238"/>
<path opacity="0.2" d="M114.42 359.671H108.03L115.38 202.771H124.22L114.42 359.671Z" fill="white"/>
<path d="M330.49 211.12H117.24V224.27H330.49V211.12Z" fill="#263238"/>
<path opacity="0.2" d="M330.49 211.12H117.24V224.27H330.49V211.12Z" fill="white"/>
<path d="M152.33 187.26C151.56 187.26 150.93 187.89 150.93 188.66V194.71C150.93 195.48 151.56 196.11 152.33 196.11H197.68C197.93 196.11 198.14 195.91 198.14 195.65V187.71C198.14 187.46 197.94 187.25 197.68 187.25H152.33V187.26Z" fill="#407BFF"/>
<path opacity="0.9" d="M198.14 188.11H179.17C178.72 188.11 178.36 188.47 178.36 188.92V194.47C178.36 194.92 178.72 195.28 179.17 195.28H198.14V188.11Z" fill="white"/>
<path d="M176.04 187.26H130.23C129.46 187.26 128.83 187.89 128.83 188.66V194.71C128.83 195.48 129.46 196.11 130.23 196.11H176.04C176.81 196.11 177.44 195.48 177.44 194.71V188.66C177.44 187.89 176.82 187.26 176.04 187.26Z" fill="#407BFF"/>
<path opacity="0.2" d="M176.04 187.26H130.23C129.46 187.26 128.83 187.89 128.83 188.66V194.71C128.83 195.48 129.46 196.11 130.23 196.11H176.04C176.81 196.11 177.44 195.48 177.44 194.71V188.66C177.44 187.89 176.82 187.26 176.04 187.26Z" fill="black"/>
<path opacity="0.5" d="M153.51 187.26H146.57C146.25 187.26 146 187.52 146 187.83V195.54C146 195.85 146.26 196.11 146.57 196.11H153.51C153.83 196.11 154.08 195.85 154.08 195.54V187.83C154.08 187.52 153.83 187.26 153.51 187.26Z" fill="#407BFF"/>
<path opacity="0.5" d="M163.55 187.26H156.61C156.29 187.26 156.04 187.52 156.04 187.83V195.54C156.04 195.85 156.3 196.11 156.61 196.11H163.55C163.87 196.11 164.12 195.85 164.12 195.54V187.83C164.12 187.52 163.87 187.26 163.55 187.26Z" fill="#407BFF"/>
<path d="M144.13 176.369C143.36 176.369 142.73 176.999 142.73 177.769V185.859C142.73 186.629 143.36 187.259 144.13 187.259H193.26C193.51 187.259 193.72 187.059 193.72 186.799V176.819C193.72 176.569 193.52 176.359 193.26 176.359H144.13V176.369Z" fill="#407BFF"/>
<path opacity="0.9" d="M193.71 177.209H170.97C170.52 177.209 170.16 177.569 170.16 178.019V185.609C170.16 186.059 170.52 186.419 170.97 186.419H193.71V177.209Z" fill="white"/>
<path d="M167.84 176.369H129.32C128.55 176.369 127.92 176.999 127.92 177.769V185.859C127.92 186.629 128.55 187.259 129.32 187.259H167.84C168.61 187.259 169.24 186.629 169.24 185.859V177.769C169.24 176.999 168.62 176.369 167.84 176.369Z" fill="#407BFF"/>
<path opacity="0.2" d="M167.84 176.369H129.32C128.55 176.369 127.92 176.999 127.92 177.769V185.859C127.92 186.629 128.55 187.259 129.32 187.259H167.84C168.61 187.259 169.24 186.629 169.24 185.859V177.769C169.24 176.999 168.62 176.369 167.84 176.369Z" fill="white"/>
<path opacity="0.6" d="M164.23 178.529H136.02C135.55 178.529 135.17 178.909 135.17 179.379V184.249C135.17 184.719 135.55 185.099 136.02 185.099H164.23C164.7 185.099 165.08 184.719 165.08 184.249V179.379C165.08 178.909 164.7 178.529 164.23 178.529Z" fill="#407BFF"/>
<path d="M158.54 171.15C157.77 171.15 157.14 171.52 157.14 171.97V175.54C157.14 176 157.77 176.36 158.54 176.36H203.89C204.14 176.36 204.35 176.24 204.35 176.09V171.41C204.35 171.26 204.15 171.14 203.89 171.14H158.54V171.15Z" fill="#407BFF"/>
<path opacity="0.9" d="M204.35 171.649H185.2C184.86 171.649 184.58 171.929 184.58 172.269V175.249C184.58 175.589 184.86 175.869 185.2 175.869H204.35V171.649Z" fill="white"/>
<path d="M182.58 171.149H136.12C135.53 171.149 135.05 171.629 135.05 172.219V175.289C135.05 175.879 135.53 176.359 136.12 176.359H182.58C183.17 176.359 183.65 175.879 183.65 175.289V172.219C183.66 171.629 183.17 171.149 182.58 171.149Z" fill="#407BFF"/>
<path opacity="0.2" d="M182.58 171.149H136.12C135.53 171.149 135.05 171.629 135.05 172.219V175.289C135.05 175.879 135.53 176.359 136.12 176.359H182.58C183.17 176.359 183.65 175.879 183.65 175.289V172.219C183.66 171.629 183.17 171.149 182.58 171.149Z" fill="black"/>
<path opacity="0.5" d="M141.96 171.149H140.51C140.39 171.149 140.3 171.239 140.3 171.359V176.159C140.3 176.279 140.39 176.369 140.51 176.369H141.96C142.08 176.369 142.17 176.279 142.17 176.159V171.359C142.17 171.249 142.08 171.149 141.96 171.149Z" fill="#407BFF"/>
<path opacity="0.5" d="M179.68 171.149H178.26C178.14 171.149 178.05 171.239 178.05 171.359V176.159C178.05 176.279 178.14 176.369 178.26 176.369H179.68C179.8 176.369 179.89 176.279 179.89 176.159V171.359C179.89 171.249 179.8 171.149 179.68 171.149Z" fill="#407BFF"/>
<path d="M150.34 163.61C149.57 163.61 148.94 163.98 148.94 164.43V170.32C148.94 170.78 149.57 171.14 150.34 171.14H199.47C199.72 171.14 199.93 171.02 199.93 170.87V163.87C199.93 163.72 199.73 163.6 199.47 163.6H150.34V163.61Z" fill="#407BFF"/>
<path opacity="0.9" d="M199.93 164.109H177C176.66 164.109 176.38 164.389 176.38 164.729V170.039C176.38 170.379 176.66 170.659 177 170.659H199.93V164.109Z" fill="white"/>
<path d="M174.38 163.609H135.21C134.62 163.609 134.14 164.089 134.14 164.679V170.069C134.14 170.659 134.62 171.139 135.21 171.139H174.38C174.97 171.139 175.45 170.659 175.45 170.069V164.679C175.45 164.099 174.97 163.609 174.38 163.609Z" fill="#407BFF"/>
<path opacity="0.1" d="M174.38 163.609H135.21C134.62 163.609 134.14 164.089 134.14 164.679V170.069C134.14 170.659 134.62 171.139 135.21 171.139H174.38C174.97 171.139 175.45 170.659 175.45 170.069V164.679C175.45 164.099 174.97 163.609 174.38 163.609Z" fill="black"/>
<path d="M259.92 194.45H218.65C218.19 194.45 217.82 194.82 217.82 195.28C217.82 195.74 218.19 196.11 218.65 196.11H259.92C260.38 196.11 260.75 195.74 260.75 195.28C260.75 194.82 260.38 194.45 259.92 194.45Z" fill="white"/>
<path d="M340.66 192.47H367.78L370.23 196.01H338.21L340.66 192.47Z" fill="#263238"/>
<path d="M382.54 131.88C382.54 133.89 380.91 135.53 378.89 135.53C376.88 135.53 375.24 133.9 375.24 131.88C375.24 129.87 376.87 128.23 378.89 128.23C380.91 128.23 382.54 129.87 382.54 131.88Z" fill="black"/>
<path d="M355.12 194.87C354.97 194.87 354.82 194.84 354.67 194.78C354.08 194.53 353.81 193.86 354.06 193.27L380.19 131.44C380.44 130.85 381.11 130.58 381.7 130.83C382.29 131.08 382.56 131.75 382.31 132.34L356.18 194.17C355.99 194.6 355.57 194.87 355.12 194.87Z" fill="#263238"/>
<path d="M381.24 133.03C381 133.03 380.76 132.96 380.55 132.8L333.1 97.2303C332.59 96.8503 332.49 96.1303 332.87 95.6203C333.25 95.1103 333.97 95.0103 334.48 95.3903L381.94 130.96C382.45 131.34 382.55 132.06 382.17 132.57C381.94 132.87 381.59 133.03 381.24 133.03Z" fill="#263238"/>
<path d="M384.89 131.88C384.89 133.89 383.26 135.53 381.24 135.53C379.22 135.53 377.59 133.9 377.59 131.88C377.59 129.87 379.22 128.23 381.24 128.23C383.26 128.23 384.89 129.87 384.89 131.88Z" fill="#263238"/>
<path d="M333.79 99.9499C335.8 99.9499 337.43 98.3202 337.43 96.3099C337.43 94.2996 335.8 92.6699 333.79 92.6699C331.78 92.6699 330.15 94.2996 330.15 96.3099C330.15 98.3202 331.78 99.9499 333.79 99.9499Z" fill="#263238"/>
<path d="M328.69 112.94C325.51 116.12 320.34 116.12 317.16 112.94C313.98 109.76 313.98 104.59 317.16 101.41C320.34 98.2304 325.51 98.2304 328.69 101.41C331.87 104.59 331.87 109.76 328.69 112.94Z" fill="#407BFF"/>
<path opacity="0.7" d="M328.69 112.94C325.51 116.12 320.34 116.12 317.16 112.94C313.98 109.76 313.98 104.59 317.16 101.41C320.34 98.2304 325.51 98.2304 328.69 101.41C331.87 104.59 331.87 109.76 328.69 112.94Z" fill="white"/>
<path d="M333.79 96.31C326.96 89.48 315.89 89.48 309.07 96.31L333.79 121.03C340.62 114.21 340.62 103.14 333.79 96.31Z" fill="#263238"/>
<g opacity="0.2">
<path opacity="0.2" d="M309.07 96.3096L205.24 196.11H311.75L333.79 121.03L309.07 96.3096Z" fill="#407BFF"/>
<path opacity="0.7" d="M309.07 96.3096L205.24 196.11H311.75L333.79 121.03L309.07 96.3096Z" fill="white"/>
</g>
</g>
<defs>
<clipPath id="clip0_301_1132">
<rect width="500" height="372.61" fill="white"/>
</clipPath>
</defs>
</svg>
